<?xml version="1.0" encoding="UTF-8" standalone="no"?>
<svg width="692px" height="514px" viewBox="0 0 692 514" version="1.1" xmlns="http://www.w3.org/2000/svg" xmlns:xlink="http://www.w3.org/1999/xlink">
    <!-- Generator: Sketch 3.8.3 (29802) - http://www.bohemiancoding.com/sketch -->
    <title>Artboard 1 Copy</title>
    <desc>Created with Sketch.</desc>
    <defs>
        <polygon id="path-1" points="2.2539 0.169 0.3229 0.169 0.3229 1.7699 2.2539 1.7699 2.2539 0.169"></polygon>
        <polygon id="path-3" points="2.5693 0.169 0.6383 0.169 0.6383 1.7699 2.5693 1.7699 2.5693 0.169"></polygon>
        <polygon id="path-5" points="2.8848 0.169 0.9538 0.169 0.9538 1.7699 2.8848 1.7699 2.8848 0.169"></polygon>
        <polygon id="path-7" points="2.2002 0.169 0.2692 0.169 0.2692 1.7699 2.2002 1.7699 2.2002 0.169"></polygon>
        <polygon id="path-9" points="2.5156 0.169 0.5846 0.169 0.5846 1.7699 2.5156 1.7699 2.5156 0.169"></polygon>
        <polygon id="path-11" points="2.8311 0.169 0.8991 0.169 0.8991 1.7699 2.8311 1.7699 2.8311 0.169"></polygon>
        <polygon id="path-13" points="2.1465 0.169 0.2145 0.169 0.2145 1.7699 2.1465 1.7699 2.1465 0.169"></polygon>
        <polygon id="path-15" points="2.4619 0.169 0.5299 0.169 0.5299 1.7699 2.4619 1.7699 2.4619 0.169"></polygon>
        <polygon id="path-17" points="2.7764 0.169 0.8454 0.169 0.8454 1.7699 2.7764 1.7699 2.7764 0.169"></polygon>
        <polygon id="path-19" points="2.0923 0.169 0.1613 0.169 0.1613 1.7699 2.0923 1.7699 2.0923 0.169"></polygon>
        <polygon id="path-21" points="2.4077 0.169 0.4767 0.169 0.4767 1.7699 2.4077 1.7699 2.4077 0.169"></polygon>
        <polygon id="path-23" points="2.7231 0.169 0.7921 0.169 0.7921 1.7699 2.7231 1.7699 2.7231 0.169"></polygon>
        <polygon id="path-25" points="2.0386 0.169 0.1076 0.169 0.1076 1.7699 2.0386 1.7699 2.0386 0.169"></polygon>
        <polygon id="path-27" points="2.354 0.169 0.423 0.169 0.423 1.7699 2.354 1.7699 2.354 0.169"></polygon>
        <polygon id="path-29" points="2.6689 0.169 0.7379 0.169 0.7379 1.7699 2.6689 1.7699 2.6689 0.169"></polygon>
        <polygon id="path-31" points="1.9844 0.169 0.0534 0.169 0.0534 1.7699 1.9844 1.7699 1.9844 0.169"></polygon>
        <polygon id="path-33" points="2.2998 0.169 0.3688 0.169 0.3688 1.7699 2.2998 1.7699 2.2998 0.169"></polygon>
        <polygon id="path-35" points="2.6152 0.169 0.6842 0.169 0.6842 1.7699 2.6152 1.7699 2.6152 0.169"></polygon>
        <polygon id="path-37" points="1.9307 0.169 0 0.169 0 1.7699 1.9307 1.7699 1.9307 0.169"></polygon>
        <polygon id="path-39" points="2.71050543e-20 0.6631 2.71050543e-20 1.95525027 1.9307 1.95525027 1.9307 0.6631 0 0.6631"></polygon>
        <polygon id="path-41" points="0.997959713 2 2.291 2 2.291 0.0695 0.997959713 0.0695"></polygon>
        <polygon id="path-43" points="0.313359713 2 1.6064 2 1.6064 0.0695 0.313359713 0.0695"></polygon>
        <polygon id="path-45" points="0.151759713 2 1.36295494 2 1.36295494 0.0693 0.151759713 0.0693 0.151759713 2"></polygon>
        <polygon id="path-47" points="0.728849791 2 2.022 2 2.022 0.0695 0.728849791 0.0695"></polygon>
        <polygon id="path-49" points="0.0442497912 2 1.3374 2 1.3374 0.0695 0.0442497912 0.0695"></polygon>
        <polygon id="path-51" points="2.71050543e-20 0.9785 2.71050543e-20 2.27065027 1.9307 2.27065027 1.9307 0.9785 0 0.9785"></polygon>
        <polygon id="path-53" points="2.71050543e-20 0.502 2.71050543e-20 1.79415027 1.9307 1.79415027 1.9307 0.502 0 0.502"></polygon>
        <polygon id="path-55" points="2.71050543e-20 0.1865 2.71050543e-20 1.47865027 1.9307 1.47865027 1.9307 0.1865 0 0.1865"></polygon>
        <polygon id="path-57" points="2.71050543e-20 0.951659713 2.71050543e-20 2.2437 1.9307 2.2437 1.9307 0.951659713 0 0.951659713"></polygon>
    </defs>
    <g id="Page-1" stroke="none" stroke-width="1" fill="none" fill-rule="evenodd">
        <g id="Artboard-1-Copy">
            <g id="Group-3" transform="translate(673.000000, 17.831000)">
                <mask id="mask-2" fill="white">
                    <use xlink:href="#path-1"></use>
                </mask>
                <g id="Clip-2"></g>
                <path d="M2.2539,0.1689 C1.8219,0.7029 1.3909,1.2359 0.9579,1.7699 C0.7469,1.2359 0.5349,0.7029 0.3229,0.1689 L2.2539,0.1689 Z" id="Fill-1" fill="#000000" mask="url(#mask-2)"></path>
            </g>
            <g id="Group-6" transform="translate(636.000000, 17.831000)">
                <mask id="mask-4" fill="white">
                    <use xlink:href="#path-3"></use>
                </mask>
                <g id="Clip-5"></g>
                <path d="M2.5693,0.1689 C2.1373,0.7029 1.7063,1.2359 1.2733,1.7699 C1.0623,1.2359 0.8503,0.7029 0.6383,0.1689 L2.5693,0.1689 Z" id="Fill-4" fill="#000000" mask="url(#mask-4)"></path>
            </g>
            <g id="Group-9" transform="translate(599.000000, 17.831000)">
                <mask id="mask-6" fill="white">
                    <use xlink:href="#path-5"></use>
                </mask>
                <g id="Clip-8"></g>
                <path d="M2.8848,0.1689 C2.4528,0.7029 2.0208,1.2359 1.5888,1.7699 C1.3778,1.2359 1.1658,0.7029 0.9538,0.1689 L2.8848,0.1689 Z" id="Fill-7" fill="#000000" mask="url(#mask-6)"></path>
            </g>
            <g id="Group-12" transform="translate(563.000000, 17.831000)">
                <mask id="mask-8" fill="white">
                    <use xlink:href="#path-7"></use>
                </mask>
                <g id="Clip-11"></g>
                <path d="M2.2002,0.1689 C1.7682,0.7029 1.3362,1.2359 0.9042,1.7699 C0.6932,1.2359 0.4812,0.7029 0.2692,0.1689 L2.2002,0.1689 Z" id="Fill-10" fill="#000000" mask="url(#mask-8)"></path>
            </g>
            <g id="Group-15" transform="translate(526.000000, 17.831000)">
                <mask id="mask-10" fill="white">
                    <use xlink:href="#path-9"></use>
                </mask>
                <g id="Clip-14"></g>
                <path d="M2.5156,0.1689 C2.0836,0.7029 1.6516,1.2359 1.2196,1.7699 C1.0086,1.2359 0.7966,0.7029 0.5846,0.1689 L2.5156,0.1689 Z" id="Fill-13" fill="#000000" mask="url(#mask-10)"></path>
            </g>
            <g id="Group-18" transform="translate(489.000000, 17.831000)">
                <mask id="mask-12" fill="white">
                    <use xlink:href="#path-11"></use>
                </mask>
                <g id="Clip-17"></g>
                <path d="M2.8311,0.1689 C2.3991,0.7029 1.9671,1.2359 1.5351,1.7699 C1.3241,1.2359 1.1121,0.7029 0.8991,0.1689 L2.8311,0.1689 Z" id="Fill-16" fill="#000000" mask="url(#mask-12)"></path>
            </g>
            <g id="Group-21" transform="translate(453.000000, 17.831000)">
                <mask id="mask-14" fill="white">
                    <use xlink:href="#path-13"></use>
                </mask>
                <g id="Clip-20"></g>
                <path d="M2.1465,0.1689 C1.7135,0.7029 1.2825,1.2359 0.8505,1.7699 C0.6395,1.2359 0.4275,0.7029 0.2145,0.1689 L2.1465,0.1689 Z" id="Fill-19" fill="#000000" mask="url(#mask-14)"></path>
            </g>
            <g id="Group-24" transform="translate(416.000000, 17.831000)">
                <mask id="mask-16" fill="white">
                    <use xlink:href="#path-15"></use>
                </mask>
                <g id="Clip-23"></g>
                <path d="M2.4619,0.1689 C2.0289,0.7029 1.5979,1.2359 1.1659,1.7699 C0.9549,1.2359 0.7429,0.7029 0.5299,0.1689 L2.4619,0.1689 Z" id="Fill-22" fill="#000000" mask="url(#mask-16)"></path>
            </g>
            <g id="Group-27" transform="translate(379.000000, 17.831000)">
                <mask id="mask-18" fill="white">
                    <use xlink:href="#path-17"></use>
                </mask>
                <g id="Clip-26"></g>
                <path d="M2.7764,0.1689 L1.4814,1.7699 C1.2704,1.2359 1.0584,0.7029 0.8454,0.1689 L2.7764,0.1689 Z" id="Fill-25" fill="#000000" mask="url(#mask-18)"></path>
            </g>
            <g id="Group-30" transform="translate(343.000000, 17.831000)">
                <mask id="mask-20" fill="white">
                    <use xlink:href="#path-19"></use>
                </mask>
                <g id="Clip-29"></g>
                <path d="M2.0923,0.1689 C1.6603,0.7029 1.2283,1.2359 0.7973,1.7699 C0.5863,1.2359 0.3733,0.7029 0.1613,0.1689 L2.0923,0.1689 Z" id="Fill-28" fill="#000000" mask="url(#mask-20)"></path>
            </g>
            <g id="Group-33" transform="translate(306.000000, 17.831000)">
                <mask id="mask-22" fill="white">
                    <use xlink:href="#path-21"></use>
                </mask>
                <g id="Clip-32"></g>
                <path d="M2.4077,0.1689 C1.9757,0.7029 1.5437,1.2359 1.1127,1.7699 C0.9007,1.2359 0.6887,0.7029 0.4767,0.1689 L2.4077,0.1689 Z" id="Fill-31" fill="#000000" mask="url(#mask-22)"></path>
            </g>
            <g id="Group-36" transform="translate(269.000000, 17.831000)">
                <mask id="mask-24" fill="white">
                    <use xlink:href="#path-23"></use>
                </mask>
                <g id="Clip-35"></g>
                <path d="M2.7231,0.1689 C2.2911,0.7029 1.8591,1.2359 1.4281,1.7699 C1.2161,1.2359 1.0041,0.7029 0.7921,0.1689 L2.7231,0.1689 Z" id="Fill-34" fill="#000000" mask="url(#mask-24)"></path>
            </g>
            <g id="Group-39" transform="translate(233.000000, 17.831000)">
                <mask id="mask-26" fill="white">
                    <use xlink:href="#path-25"></use>
                </mask>
                <g id="Clip-38"></g>
                <path d="M2.0386,0.1689 C1.6066,0.7029 1.1746,1.2359 0.7436,1.7699 C0.5316,1.2359 0.3196,0.7029 0.1076,0.1689 L2.0386,0.1689 Z" id="Fill-37" fill="#000000" mask="url(#mask-26)"></path>
            </g>
            <g id="Group-42" transform="translate(196.000000, 17.831000)">
                <mask id="mask-28" fill="white">
                    <use xlink:href="#path-27"></use>
                </mask>
                <g id="Clip-41"></g>
                <path d="M2.354,0.1689 C1.922,0.7029 1.49,1.2359 1.059,1.7699 C0.847,1.2359 0.635,0.7029 0.423,0.1689 L2.354,0.1689 Z" id="Fill-40" fill="#000000" mask="url(#mask-28)"></path>
            </g>
            <g id="Group-45" transform="translate(159.000000, 17.831000)">
                <mask id="mask-30" fill="white">
                    <use xlink:href="#path-29"></use>
                </mask>
                <g id="Clip-44"></g>
                <path d="M2.6689,0.1689 L1.3739,1.7699 C1.1629,1.2359 0.9509,0.7029 0.7379,0.1689 L2.6689,0.1689 Z" id="Fill-43" fill="#000000" mask="url(#mask-30)"></path>
            </g>
            <g id="Group-48" transform="translate(123.000000, 17.831000)">
                <mask id="mask-32" fill="white">
                    <use xlink:href="#path-31"></use>
                </mask>
                <g id="Clip-47"></g>
                <path d="M1.9844,0.1689 C1.5524,0.7029 1.1214,1.2359 0.6894,1.7699 C0.4784,1.2359 0.2664,0.7029 0.0534,0.1689 L1.9844,0.1689 Z" id="Fill-46" fill="#000000" mask="url(#mask-32)"></path>
            </g>
            <g id="Group-51" transform="translate(86.000000, 17.831000)">
                <mask id="mask-34" fill="white">
                    <use xlink:href="#path-33"></use>
                </mask>
                <g id="Clip-50"></g>
                <path d="M2.2998,0.1689 C1.8678,0.7029 1.4368,1.2359 1.0048,1.7699 C0.7938,1.2359 0.5808,0.7029 0.3688,0.1689 L2.2998,0.1689 Z" id="Fill-49" fill="#000000" mask="url(#mask-34)"></path>
            </g>
            <g id="Group-54" transform="translate(49.000000, 17.831000)">
                <mask id="mask-36" fill="white">
                    <use xlink:href="#path-35"></use>
                </mask>
                <g id="Clip-53"></g>
                <path d="M2.6152,0.1689 C2.1832,0.7029 1.7522,1.2359 1.3202,1.7699 C1.1092,1.2359 0.8962,0.7029 0.6842,0.1689 L2.6152,0.1689 Z" id="Fill-52" fill="#000000" mask="url(#mask-36)"></path>
            </g>
            <g id="Group-57" transform="translate(13.000000, 17.831000)">
                <mask id="mask-38" fill="white">
                    <use xlink:href="#path-37"></use>
                </mask>
                <g id="Clip-56"></g>
                <path d="M1.9307,0.1689 C1.4987,0.7029 1.0667,1.2359 0.6357,1.7699 C0.4247,1.2359 0.2117,0.7029 -0.0003,0.1689 L1.9307,0.1689 Z" id="Fill-55" fill="#000000" mask="url(#mask-38)"></path>
            </g>
            <path d="M417.2178,309.8251 C416.9598,310.0821 416.7448,310.2971 416.5308,310.5121 C416.9598,310.7261 417.3728,311.0141 417.8268,311.1151 C417.9858,311.1501 418.2458,310.7261 418.4618,310.5121 C418.0418,310.2791 417.6218,310.0481 417.2178,309.8251" id="Fill-65" fill="#000000"></path>
            <path d="M13.9653,348.1621 C14.1803,348.5901 14.4673,349.0031 14.5693,349.4571 C14.6043,349.6171 14.1803,349.8781 13.9653,350.0931 C13.7503,349.6621 13.4633,349.2511 13.3613,348.7971 C13.3263,348.6371 13.7503,348.3771 13.9653,348.1621" id="Fill-73" fill="#000000"></path>
            <path d="M50.9282,348.4404 C51.1862,348.6974 51.4002,348.9124 51.6152,349.1274 C51.1862,349.3414 50.7732,349.6284 50.3192,349.7304 C50.1602,349.7664 49.8992,349.3414 49.6842,349.1274 C50.1042,348.8954 50.5232,348.6634 50.9282,348.4404" id="Fill-75" fill="#000000"></path>
            <path d="M674.9756,312.7216 C674.7176,312.9776 674.5016,313.1926 674.2886,313.4086 C674.0736,312.9776 673.7866,312.5666 673.6846,312.1126 C673.6496,311.9516 674.0736,311.6926 674.2886,311.4766 C674.5206,311.8976 674.7516,312.3166 674.9756,312.7216" id="Fill-79" fill="#000000"></path>
            <path d="M674.9756,349.4062 C674.7176,349.6622 674.5026,349.8782 674.2886,350.0932 C674.0736,349.6622 673.7866,349.2512 673.6846,348.7972 C673.6496,348.6362 674.0736,348.3772 674.2886,348.1622 C674.5206,348.5822 674.7516,349.0012 674.9756,349.4062" id="Fill-83" fill="#000000"></path>
            <path d="M638.29,349.4062 C638.032,349.6622 637.817,349.8782 637.603,350.0932 C637.389,349.6622 637.102,349.2512 637,348.7972 C636.965,348.6362 637.389,348.3772 637.603,348.1622 C637.836,348.5822 638.067,349.0012 638.29,349.4062" id="Fill-85" fill="#000000"></path>
            <path d="M601.6064,349.4062 C601.3474,349.6622 601.1334,349.8782 600.9194,350.0932 C600.7044,349.6622 600.4174,349.2512 600.3154,348.7972 C600.2804,348.6362 600.7044,348.3772 600.9194,348.1622 C601.1514,348.5822 601.3824,349.0012 601.6064,349.4062" id="Fill-87" fill="#000000"></path>
            <path d="M564.9219,349.4062 C564.6629,349.6622 564.4479,349.8782 564.2349,350.0932 C564.0199,349.6622 563.7329,349.2512 563.6309,348.7972 C563.5959,348.6362 564.0199,348.3772 564.2349,348.1622 C564.4669,348.5822 564.6979,349.0012 564.9219,349.4062" id="Fill-89" fill="#000000"></path>
            <path d="M526.8623,349.4062 C527.0863,349.0012 527.3183,348.5822 527.5493,348.1622 C527.7643,348.3772 528.1893,348.6362 528.1533,348.7972 C528.0523,349.2512 527.7643,349.6622 527.5493,350.0932 C527.3353,349.8782 527.1213,349.6622 526.8623,349.4062" id="Fill-91" fill="#000000"></path>
            <path d="M491.5527,348.8476 C491.3287,349.2526 491.0977,349.6716 490.8657,350.0926 C490.6507,349.8776 490.2267,349.6176 490.2617,349.4566 C490.3627,349.0026 490.6507,348.5916 490.8657,348.1616 C491.0797,348.3766 491.2937,348.5916 491.5527,348.8476" id="Fill-93" fill="#000000"></path>
            <path d="M454.459,348.4404 C454.717,348.6974 454.931,348.9124 455.146,349.1274 C454.717,349.3414 454.304,349.6304 453.85,349.7304 C453.691,349.7664 453.431,349.3414 453.215,349.1274 C453.635,348.8954 454.055,348.6634 454.459,348.4404" id="Fill-95" fill="#000000"></path>
            <path d="M417.2178,348.4404 C417.6218,348.6634 418.0418,348.8954 418.4618,349.1274 C418.2458,349.3414 417.9858,349.7664 417.8268,349.7304 C417.3728,349.6304 416.9598,349.3414 416.5308,349.1274 C416.7458,348.9124 416.9598,348.6974 417.2178,348.4404" id="Fill-97" fill="#000000"></path>
            <path d="M381.499,348.8476 C381.275,349.2526 381.043,349.6716 380.812,350.0926 C380.597,349.8776 380.172,349.6176 380.208,349.4566 C380.309,349.0026 380.597,348.5916 380.812,348.1616 C381.026,348.3766 381.24,348.5916 381.499,348.8476" id="Fill-99" fill="#000000"></path>
            <path d="M308.1294,348.8476 C307.9064,349.2526 307.6744,349.6716 307.4424,350.0926 C307.2274,349.8776 306.8034,349.6176 306.8384,349.4566 C306.9404,349.0026 307.2274,348.5916 307.4424,348.1616 C307.6574,348.3766 307.8714,348.5916 308.1294,348.8476" id="Fill-101" fill="#000000"></path>
            <path d="M271.0356,348.4404 C271.2936,348.6974 271.5076,348.9124 271.7226,349.1274 C271.2936,349.3414 270.8816,349.6284 270.4266,349.7304 C270.2686,349.7664 270.0076,349.3414 269.7916,349.1274 C270.2116,348.8954 270.6316,348.6634 271.0356,348.4404" id="Fill-103" fill="#000000"></path>
            <path d="M234.7603,349.4062 C234.5023,349.6622 234.2873,349.8782 234.0733,350.0932 C233.8583,349.6622 233.5703,349.2512 233.4693,348.7972 C233.4333,348.6362 233.8583,348.3772 234.0733,348.1622 C234.3043,348.5822 234.5373,349.0012 234.7603,349.4062" id="Fill-105" fill="#000000"></path>
            <path d="M197.6665,348.4404 C197.9245,348.6974 198.1385,348.9124 198.3535,349.1274 C197.9245,349.3414 197.5115,349.6304 197.0575,349.7304 C196.8985,349.7664 196.6385,349.3414 196.4225,349.1274 C196.8425,348.8954 197.2625,348.6634 197.6665,348.4404" id="Fill-107" fill="#000000"></path>
            <path d="M161.3911,349.4062 C161.1331,349.6622 160.9181,349.8782 160.7041,350.0932 C160.4891,349.6622 160.2011,349.2512 160.1001,348.7972 C160.0641,348.6362 160.4891,348.3772 160.7041,348.1622 C160.9351,348.5822 161.1671,349.0012 161.3911,349.4062" id="Fill-109" fill="#000000"></path>
            <path d="M124.7065,349.4062 C124.4485,349.6622 124.2335,349.8782 124.0195,350.0932 C123.8045,349.6622 123.5165,349.2512 123.4155,348.7972 C123.3795,348.6362 123.8045,348.3772 124.0195,348.1622 C124.2505,348.5822 124.4825,349.0012 124.7065,349.4062" id="Fill-111" fill="#000000"></path>
            <path d="M86.6475,348.8476 C86.9055,348.5916 87.1195,348.3766 87.3345,348.1616 C87.5495,348.5916 87.8365,349.0026 87.9385,349.4566 C87.9735,349.6176 87.5495,349.8776 87.3345,350.0926 C87.1025,349.6716 86.8705,349.2526 86.6475,348.8476" id="Fill-113" fill="#000000"></path>
            <path d="M13.2778,276.0371 C13.5018,275.6321 13.7338,275.2131 13.9648,274.7921 C14.1798,275.0081 14.6048,275.2671 14.5688,275.4281 C14.4678,275.8821 14.1798,276.2931 13.9648,276.7241 C13.7508,276.5081 13.5358,276.2931 13.2778,276.0371" id="Fill-115" fill="#000000"></path>
            <path d="M49.9629,276.0371 C50.1859,275.6321 50.4179,275.2131 50.6499,274.7921 C50.8649,275.0081 51.2889,275.2671 51.2539,275.4281 C51.1519,275.8821 50.8649,276.2931 50.6499,276.7241 C50.4349,276.5081 50.2209,276.2931 49.9629,276.0371" id="Fill-117" fill="#000000"></path>
            <path d="M88.022,276.0371 C87.764,276.2931 87.549,276.5081 87.335,276.7241 C87.12,276.2931 86.832,275.8821 86.731,275.4281 C86.695,275.2671 87.12,275.0081 87.335,274.7921 C87.566,275.2131 87.798,275.6321 88.022,276.0371" id="Fill-119" fill="#000000"></path>
            <path d="M123.332,275.4785 C123.59,275.2225 123.804,275.0075 124.019,274.7915 C124.234,275.2225 124.521,275.6335 124.623,276.0875 C124.658,276.2485 124.234,276.5075 124.019,276.7235 C123.787,276.3025 123.555,275.8835 123.332,275.4785" id="Fill-121" fill="#000000"></path>
            <path d="M161.3911,276.0371 C161.1331,276.2931 160.9191,276.5081 160.7041,276.7241 C160.4891,276.2931 160.2011,275.8821 160.1001,275.4281 C160.0641,275.2671 160.4891,275.0081 160.7041,274.7921 C160.9351,275.2131 161.1671,275.6321 161.3911,276.0371" id="Fill-123" fill="#000000"></path>
            <path d="M198.0757,276.0371 C197.8177,276.2931 197.6037,276.5081 197.3887,276.7241 C197.1737,276.2931 196.8857,275.8821 196.7847,275.4281 C196.7487,275.2671 197.1737,275.0081 197.3887,274.7921 C197.6197,275.2131 197.8517,275.6321 198.0757,276.0371" id="Fill-125" fill="#000000"></path>
            <path d="M233.7949,275.0712 C234.1989,275.2942 234.6189,275.5262 235.0389,275.7582 C234.8229,275.9722 234.5629,276.3972 234.4039,276.3612 C233.9499,276.2592 233.5369,275.9722 233.1079,275.7582 C233.3229,275.5432 233.5369,275.3282 233.7949,275.0712" id="Fill-127" fill="#000000"></path>
            <path d="M381.7764,275.7578 C381.3474,275.9728 380.9344,276.2608 380.4804,276.3618 C380.3224,276.3978 380.0614,275.9728 379.8454,275.7578 C380.2754,275.5428 380.6874,275.2558 381.1424,275.1538 C381.3004,275.1178 381.5614,275.5428 381.7764,275.7578" id="Fill-129" fill="#000000"></path>
            <path d="M418.4619,275.7578 C418.0319,275.9728 417.6189,276.2608 417.1649,276.3618 C417.0069,276.3978 416.7459,275.9728 416.5299,275.7578 C416.9599,275.5428 417.3729,275.2558 417.8269,275.1538 C417.9849,275.1178 418.2459,275.5428 418.4619,275.7578" id="Fill-131" fill="#000000"></path>
            <path d="M491.8311,275.7578 C491.4011,275.9728 490.9891,276.2608 490.5341,276.3618 C490.3761,276.3978 490.1151,275.9728 489.8991,275.7578 C490.3291,275.5428 490.7421,275.2558 491.1961,275.1538 C491.3541,275.1178 491.6161,275.5428 491.8311,275.7578" id="Fill-133" fill="#000000"></path>
            <path d="M528.5156,275.7578 C528.0856,275.9728 527.6736,276.2608 527.2186,276.3618 C527.0606,276.3978 526.7996,275.9728 526.5846,275.7578 C527.0136,275.5428 527.4266,275.2538 527.8806,275.1538 C528.0386,275.1178 528.3006,275.5428 528.5156,275.7578" id="Fill-135" fill="#000000"></path>
            <path d="M563.5469,275.4785 C563.8059,275.2225 564.0199,275.0075 564.2339,274.7915 C564.4489,275.2225 564.7369,275.6335 564.8379,276.0875 C564.8739,276.2485 564.4489,276.5075 564.2339,276.7235 C564.0029,276.3025 563.7709,275.8835 563.5469,275.4785" id="Fill-137" fill="#000000"></path>
            <path d="M600.2314,275.4785 C600.4904,275.2225 600.7044,275.0075 600.9184,274.7915 C601.1334,275.2225 601.4214,275.6335 601.5224,276.0875 C601.5584,276.2485 601.1334,276.5075 600.9184,276.7235 C600.6874,276.3025 600.4554,275.8835 600.2314,275.4785" id="Fill-139" fill="#000000"></path>
            <path d="M636.917,275.4785 C637.175,275.2225 637.389,275.0075 637.604,274.7915 C637.818,275.2225 638.106,275.6335 638.207,276.0875 C638.243,276.2485 637.818,276.5075 637.604,276.7235 C637.372,276.3025 637.14,275.8835 636.917,275.4785" id="Fill-141" fill="#000000"></path>
            <path d="M675.2539,275.7578 C674.8249,275.9728 674.4119,276.2608 673.9569,276.3618 C673.7989,276.3978 673.5379,275.9728 673.3229,275.7578 C673.7519,275.5428 674.1649,275.2538 674.6189,275.1538 C674.7769,275.1178 675.0389,275.5428 675.2539,275.7578" id="Fill-143" fill="#000000"></path>
            <path d="M13.2778,312.7216 C13.5018,312.3166 13.7338,311.8976 13.9648,311.4766 C14.1798,311.6926 14.6048,311.9516 14.5688,312.1126 C14.4678,312.5666 14.1798,312.9776 13.9648,313.4086 C13.7508,313.1926 13.5358,312.9776 13.2778,312.7216" id="Fill-147" fill="#000000"></path>
            <path d="M51.3374,312.163 C51.1134,312.568 50.8814,312.987 50.6504,313.408 C50.4354,313.192 50.0104,312.933 50.0464,312.772 C50.1474,312.318 50.4354,311.907 50.6504,311.476 C50.8644,311.692 51.0794,311.907 51.3374,312.163" id="Fill-149" fill="#000000"></path>
            <path d="M87.6128,311.7558 C87.8708,312.0128 88.0848,312.2278 88.2998,312.4428 C87.8708,312.6568 87.4578,312.9458 87.0038,313.0458 C86.8448,313.0818 86.5838,312.6568 86.3688,312.4428 C86.7888,312.2108 87.2078,311.9788 87.6128,311.7558" id="Fill-151" fill="#000000"></path>
            <path d="M124.019,311.4765 C124.234,311.9055 124.521,312.3185 124.623,312.7725 C124.658,312.9325 124.234,313.1925 124.019,313.4085 C123.804,312.9775 123.517,312.5665 123.416,312.1125 C123.38,311.9525 123.804,311.6925 124.019,311.4765" id="Fill-153" fill="#000000"></path>
            <path d="M161.3911,312.7216 C161.1331,312.9776 160.9191,313.1926 160.7041,313.4086 C160.4891,312.9776 160.2011,312.5666 160.1001,312.1126 C160.0641,311.9516 160.4891,311.6926 160.7041,311.4766 C160.9351,311.8976 161.1671,312.3166 161.3911,312.7216" id="Fill-155" fill="#000000"></path>
            <path d="M306.7549,312.163 C307.0129,311.907 307.2279,311.692 307.4419,311.476 C307.6569,311.907 307.9449,312.318 308.0459,312.772 C308.0819,312.933 307.6569,313.192 307.4419,313.408 C307.2109,312.987 306.9789,312.568 306.7549,312.163" id="Fill-157" fill="#000000"></path>
            <path d="M455.1465,312.4423 C454.7165,312.6573 454.3035,312.9463 453.8495,313.0463 C453.6915,313.0823 453.4305,312.6573 453.2145,312.4423 C453.6445,312.2273 454.0575,311.9403 454.5115,311.8383 C454.6695,311.8033 454.9305,312.2273 455.1465,312.4423" id="Fill-159" fill="#000000"></path>
            <path d="M491.8311,312.4423 C491.4011,312.6573 490.9891,312.9463 490.5341,313.0463 C490.3761,313.0823 490.1151,312.6573 489.8991,312.4423 C490.3291,312.2273 490.7421,311.9403 491.1961,311.8383 C491.3541,311.8033 491.6161,312.2273 491.8311,312.4423" id="Fill-161" fill="#000000"></path>
            <path d="M526.8623,312.7216 C527.0863,312.3166 527.3183,311.8976 527.5493,311.4766 C527.7643,311.6926 528.1893,311.9516 528.1533,312.1126 C528.0523,312.5666 527.7643,312.9776 527.5493,313.4086 C527.3353,313.1926 527.1213,312.9776 526.8623,312.7216" id="Fill-163" fill="#000000"></path>
            <path d="M564.5127,311.7558 C564.7707,312.0128 564.9857,312.2278 565.1997,312.4428 C564.7707,312.6568 564.3587,312.9458 563.9037,313.0458 C563.7447,313.0818 563.4847,312.6568 563.2697,312.4428 C563.6887,312.2108 564.1087,311.9788 564.5127,311.7558" id="Fill-165" fill="#000000"></path>
            <path d="M600.2314,312.7216 C600.4554,312.3166 600.6874,311.8976 600.9184,311.4766 C601.1334,311.6926 601.5584,311.9516 601.5224,312.1126 C601.4214,312.5666 601.1334,312.9776 600.9184,313.4086 C600.7044,313.1926 600.4904,312.9776 600.2314,312.7216" id="Fill-167" fill="#000000"></path>
            <path d="M636.917,312.7216 C637.14,312.3166 637.372,311.8976 637.604,311.4766 C637.818,311.6926 638.243,311.9516 638.207,312.1126 C638.106,312.5666 637.818,312.9776 637.604,313.4086 C637.389,313.1926 637.175,312.9776 636.917,312.7216" id="Fill-169" fill="#000000"></path>
            <path d="M674.9756,459.4599 C674.7176,459.7169 674.5016,459.9319 674.2886,460.1469 C674.0736,459.7169 673.7866,459.3059 673.6846,458.8509 C673.6496,458.6899 674.0736,458.4309 674.2886,458.2159 C674.5206,458.6359 674.7516,459.0549 674.9756,459.4599" id="Fill-173" fill="#000000"></path>
            <path d="M638.5693,459.1806 C638.1403,459.3956 637.7273,459.6846 637.2723,459.7846 C637.1143,459.8206 636.8533,459.3956 636.6383,459.1806 C637.0673,458.9656 637.4803,458.6796 637.9343,458.5766 C638.0923,458.5416 638.3543,458.9656 638.5693,459.1806" id="Fill-175" fill="#000000"></path>
            <path d="M601.8848,459.1806 C601.4558,459.3956 601.0428,459.6846 600.5878,459.7846 C600.4298,459.8206 600.1688,459.3956 599.9538,459.1806 C600.3828,458.9656 600.7958,458.6776 601.2498,458.5766 C601.4078,458.5416 601.6698,458.9656 601.8848,459.1806" id="Fill-177" fill="#000000"></path>
            <path d="M563.9561,459.8671 C563.6981,459.6101 563.4841,459.3951 563.2691,459.1801 C563.6981,458.9661 564.1111,458.6781 564.5651,458.5771 C564.7241,458.5421 564.9851,458.9661 565.2001,459.1801 C564.7801,459.4131 564.3601,459.6441 563.9561,459.8671" id="Fill-179" fill="#000000"></path>
            <path d="M526.8623,458.9013 C527.1213,458.6453 527.3353,458.4303 527.5493,458.2153 C527.7643,458.6453 528.0523,459.0563 528.1533,459.5103 C528.1893,459.6713 527.7643,459.9313 527.5493,460.1463 C527.3183,459.7253 527.0863,459.3073 526.8623,458.9013" id="Fill-181" fill="#000000"></path>
            <path d="M490.1777,458.9013 C490.4367,458.6453 490.6507,458.4303 490.8647,458.2153 C491.0797,458.6453 491.3677,459.0563 491.4687,459.5103 C491.5047,459.6713 491.0797,459.9313 490.8647,460.1463 C490.6337,459.7253 490.4017,459.3073 490.1777,458.9013" id="Fill-183" fill="#000000"></path>
            <path d="M454.1807,458.2158 C454.3957,458.6438 454.6837,459.0568 454.7847,459.5108 C454.8207,459.6708 454.3957,459.9318 454.1807,460.1468 C453.9657,459.7168 453.6777,459.3058 453.5767,458.8508 C453.5417,458.6908 453.9657,458.4308 454.1807,458.2158" id="Fill-185" fill="#000000"></path>
            <path d="M418.1836,458.9013 C417.9596,459.3073 417.7276,459.7253 417.4966,460.1463 C417.2816,459.9313 416.8566,459.6713 416.8926,459.5103 C416.9936,459.0563 417.2816,458.6453 417.4966,458.2153 C417.7106,458.4303 417.9246,458.6453 418.1836,458.9013" id="Fill-187" fill="#000000"></path>
            <path d="M380.124,458.9013 C380.383,458.6453 380.597,458.4303 380.811,458.2153 C381.026,458.6453 381.313,459.0563 381.415,459.5103 C381.45,459.6713 381.026,459.9313 380.811,460.1463 C380.579,459.7253 380.348,459.3073 380.124,458.9013" id="Fill-189" fill="#000000"></path>
            <path d="M344.4058,459.8671 C344.0008,459.6441 343.5808,459.4131 343.1618,459.1801 C343.3768,458.9661 343.6378,458.5421 343.7958,458.5771 C344.2508,458.6801 344.6628,458.9661 345.0928,459.1801 C344.8788,459.3951 344.6628,459.6101 344.4058,459.8671" id="Fill-191" fill="#000000"></path>
            <path d="M308.1294,458.9013 C307.9064,459.3073 307.6744,459.7253 307.4424,460.1463 C307.2274,459.9313 306.8034,459.6713 306.8384,459.5103 C306.9404,459.0563 307.2274,458.6453 307.4424,458.2153 C307.6574,458.4303 307.8714,458.6453 308.1294,458.9013" id="Fill-193" fill="#000000"></path>
            <path d="M271.7231,459.1806 C271.2941,459.3956 270.8811,459.6846 270.4271,459.7846 C270.2681,459.8206 270.0071,459.3956 269.7921,459.1806 C270.2211,458.9656 270.6341,458.6796 271.0881,458.5766 C271.2471,458.5416 271.5081,458.9656 271.7231,459.1806" id="Fill-195" fill="#000000"></path>
            <path d="M233.3857,458.9013 C233.6437,458.6453 233.8577,458.4303 234.0727,458.2153 C234.2877,458.6453 234.5757,459.0563 234.6767,459.5103 C234.7127,459.6713 234.2877,459.9313 234.0727,460.1463 C233.8417,459.7253 233.6097,459.3073 233.3857,458.9013" id="Fill-197" fill="#000000"></path>
            <path d="M197.6665,458.4941 C197.9245,458.7511 198.1385,458.9661 198.3535,459.1811 C197.9245,459.3951 197.5115,459.6821 197.0575,459.7841 C196.8985,459.8201 196.6385,459.3951 196.4225,459.1811 C196.8425,458.9491 197.2625,458.7171 197.6665,458.4941" id="Fill-199" fill="#000000"></path>
            <path d="M161.3911,459.4599 C161.1331,459.7169 160.9181,459.9319 160.7041,460.1469 C160.4891,459.7169 160.2011,459.3059 160.1001,458.8509 C160.0641,458.6899 160.4891,458.4309 160.7041,458.2159 C160.9351,458.6359 161.1671,459.0549 161.3911,459.4599" id="Fill-201" fill="#000000"></path>
            <path d="M124.7065,459.4599 C124.4485,459.7169 124.2335,459.9319 124.0195,460.1469 C123.8045,459.7169 123.5165,459.3059 123.4155,458.8509 C123.3795,458.6899 123.8045,458.4309 124.0195,458.2159 C124.2505,458.6359 124.4825,459.0549 124.7065,459.4599" id="Fill-203" fill="#000000"></path>
            <path d="M87.0566,458.4941 C87.4606,458.7171 87.8806,458.9491 88.2996,459.1811 C88.0846,459.3951 87.8236,459.8201 87.6656,459.7841 C87.2106,459.6821 86.7986,459.3951 86.3696,459.1811 C86.5836,458.9661 86.7986,458.7511 87.0566,458.4941" id="Fill-205" fill="#000000"></path>
            <path d="M50.9282,458.4941 C51.1862,458.7511 51.4002,458.9661 51.6152,459.1811 C51.1862,459.3951 50.7732,459.6821 50.3192,459.7841 C50.1602,459.8201 49.8992,459.3951 49.6842,459.1811 C50.1042,458.9491 50.5232,458.7171 50.9282,458.4941" id="Fill-207" fill="#000000"></path>
            <g id="Group-211" transform="translate(13.000000, 457.831000)">
                <mask id="mask-40" fill="white">
                    <use xlink:href="#path-39"></use>
                </mask>
                <g id="Clip-210"></g>
                <path d="M1.2437,0.6631 C1.5017,0.9201 1.7157,1.1351 1.9307,1.3501 C1.5017,1.5641 1.0887,1.8511 0.6347,1.9531 C0.4757,1.9891 0.2147,1.5641 -0.0003,1.3501 C0.4197,1.1181 0.8387,0.8861 1.2437,0.6631" id="Fill-209" fill="#000000" mask="url(#mask-40)"></path>
            </g>
            <path d="M673.6016,495.5869 C673.8596,495.3299 674.0736,495.1149 674.2886,494.8999 C674.5026,495.3299 674.7906,495.7409 674.8916,496.1949 C674.9276,496.3559 674.5026,496.6159 674.2886,496.8309 C674.0566,496.4099 673.8246,495.9919 673.6016,495.5869" id="Fill-215" fill="#000000"></path>
            <g id="Group-219" transform="translate(636.000000, 494.831000)">
                <mask id="mask-42" fill="white">
                    <use xlink:href="#path-41"></use>
                </mask>
                <g id="Clip-218"></g>
                <path d="M2.291,1.3135 C2.032,1.5705 1.817,1.7855 1.604,2.0005 C1.389,1.5705 1.102,1.1595 1,0.7045 C0.965,0.5435 1.389,0.2845 1.604,0.0695 C1.836,0.4895 2.067,0.9085 2.291,1.3135" id="Fill-217" fill="#000000" mask="url(#mask-42)"></path>
            </g>
            <g id="Group-222" transform="translate(600.000000, 494.831000)">
                <mask id="mask-44" fill="white">
                    <use xlink:href="#path-43"></use>
                </mask>
                <g id="Clip-221"></g>
                <path d="M1.6064,1.3135 C1.3474,1.5705 1.1334,1.7855 0.9194,2.0005 C0.7044,1.5705 0.4174,1.1595 0.3154,0.7045 C0.2804,0.5435 0.7044,0.2845 0.9194,0.0695 C1.1514,0.4895 1.3824,0.9085 1.6064,1.3135" id="Fill-220" fill="#000000" mask="url(#mask-44)"></path>
            </g>
            <path d="M563.9551,496.5517 C563.6981,496.2947 563.4841,496.0797 563.2691,495.8647 C563.6981,495.6507 564.1111,495.3627 564.5651,495.2617 C564.7241,495.2267 564.9851,495.6507 565.2001,495.8647 C564.7801,496.0977 564.3601,496.3287 563.9551,496.5517" id="Fill-223" fill="#000000"></path>
            <path d="M527.8281,495.1787 C528.0861,495.4357 528.3011,495.6507 528.5151,495.8657 C528.0861,496.0797 527.6741,496.3667 527.2191,496.4687 C527.0601,496.5047 526.8001,496.0797 526.5851,495.8657 C527.0041,495.6337 527.4241,495.4017 527.8281,495.1787" id="Fill-225" fill="#000000"></path>
            <path d="M491.5527,495.5869 C491.3287,495.9919 491.0977,496.4099 490.8657,496.8309 C490.6507,496.6159 490.2267,496.3559 490.2617,496.1949 C490.3627,495.7409 490.6507,495.3299 490.8657,494.8999 C491.0797,495.1149 491.2937,495.3299 491.5527,495.5869" id="Fill-227" fill="#000000"></path>
            <path d="M454.459,495.1787 C454.717,495.4357 454.931,495.6507 455.146,495.8657 C454.717,496.0797 454.304,496.3667 453.85,496.4687 C453.691,496.5047 453.431,496.0797 453.215,495.8657 C453.635,495.6337 454.055,495.4017 454.459,495.1787" id="Fill-229" fill="#000000"></path>
            <path d="M417.2178,496.5517 C416.9598,496.2947 416.7458,496.0797 416.5308,495.8647 C416.9598,495.6507 417.3728,495.3647 417.8268,495.2617 C417.9858,495.2267 418.2458,495.6507 418.4618,495.8647 C418.0418,496.0977 417.6218,496.3287 417.2178,496.5517" id="Fill-231" fill="#000000"></path>
            <path d="M381.0898,495.1787 C381.3478,495.4357 381.5618,495.6507 381.7768,495.8657 C381.3478,496.0797 380.9348,496.3667 380.4808,496.4687 C380.3218,496.5047 380.0618,496.0797 379.8458,495.8657 C380.2658,495.6337 380.6858,495.4017 381.0898,495.1787" id="Fill-233" fill="#000000"></path>
            <path d="M343.8486,496.5517 C343.5906,496.2947 343.3766,496.0797 343.1616,495.8647 C343.5906,495.6507 344.0036,495.3647 344.4576,495.2617 C344.6166,495.2267 344.8776,495.6507 345.0926,495.8647 C344.6726,496.0977 344.2526,496.3287 343.8486,496.5517" id="Fill-235" fill="#000000"></path>
            <path d="M307.7202,496.5517 C307.3162,496.3287 306.8962,496.0977 306.4772,495.8647 C306.6922,495.6507 306.9532,495.2267 307.1112,495.2617 C307.5662,495.3627 307.9782,495.6507 308.4072,495.8647 C308.1932,496.0797 307.9782,496.2947 307.7202,496.5517" id="Fill-237" fill="#000000"></path>
            <g id="Group-241" transform="translate(270.000000, 494.831000)">
                <mask id="mask-46" fill="white">
                    <use xlink:href="#path-45"></use>
                </mask>
                <g id="Clip-240"></g>
                <path d="M0.7578,0.0693 C0.9728,0.4973 1.2598,0.9103 1.3608,1.3643 C1.3968,1.5243 0.9728,1.7853 0.7578,2.0003 C0.5428,1.5703 0.2548,1.1593 0.1538,0.7043 C0.1188,0.5443 0.5428,0.2843 0.7578,0.0693" id="Fill-239" fill="#000000" mask="url(#mask-46)"></path>
            </g>
            <path d="M233.7949,495.1787 C234.1989,495.4017 234.6189,495.6337 235.0389,495.8657 C234.8229,496.0797 234.5629,496.5047 234.4039,496.4687 C233.9499,496.3667 233.5369,496.0797 233.1079,495.8657 C233.3229,495.6507 233.5369,495.4357 233.7949,495.1787" id="Fill-242" fill="#000000"></path>
            <path d="M198.0757,495.5869 C197.8517,495.9919 197.6197,496.4099 197.3887,496.8309 C197.1737,496.6159 196.7487,496.3559 196.7847,496.1949 C196.8857,495.7409 197.1737,495.3299 197.3887,494.8999 C197.6037,495.1149 197.8177,495.3299 198.0757,495.5869" id="Fill-244" fill="#000000"></path>
            <path d="M160.0166,495.5869 C160.2746,495.3299 160.4886,495.1149 160.7036,494.8999 C160.9186,495.3299 161.2056,495.7409 161.3076,496.1949 C161.3426,496.3559 160.9186,496.6159 160.7036,496.8309 C160.4716,496.4099 160.2396,495.9919 160.0166,495.5869" id="Fill-246" fill="#000000"></path>
            <path d="M124.2974,495.1787 C124.5554,495.4357 124.7694,495.6507 124.9844,495.8657 C124.5554,496.0797 124.1424,496.3687 123.6884,496.4687 C123.5294,496.5047 123.2684,496.0797 123.0534,495.8657 C123.4734,495.6337 123.8924,495.4017 124.2974,495.1787" id="Fill-248" fill="#000000"></path>
            <g id="Group-252" transform="translate(86.000000, 494.831000)">
                <mask id="mask-48" fill="white">
                    <use xlink:href="#path-47"></use>
                </mask>
                <g id="Clip-251"></g>
                <path d="M2.022,1.3135 C1.764,1.5705 1.548,1.7855 1.335,2.0005 C1.12,1.5705 0.832,1.1595 0.731,0.7045 C0.695,0.5435 1.12,0.2845 1.335,0.0695 C1.566,0.4895 1.798,0.9085 2.022,1.3135" id="Fill-250" fill="#000000" mask="url(#mask-48)"></path>
            </g>
            <g id="Group-255" transform="translate(50.000000, 494.831000)">
                <mask id="mask-50" fill="white">
                    <use xlink:href="#path-49"></use>
                </mask>
                <g id="Clip-254"></g>
                <path d="M1.3374,1.3135 C1.0794,1.5705 0.8634,1.7855 0.6504,2.0005 C0.4354,1.5705 0.1474,1.1595 0.0464,0.7045 C0.0104,0.5435 0.4354,0.2845 0.6504,0.0695 C0.8814,0.4895 1.1134,0.9085 1.3374,1.3135" id="Fill-253" fill="#000000" mask="url(#mask-50)"></path>
            </g>
            <path d="M14.6523,495.5869 C14.4293,495.9919 14.1973,496.4099 13.9653,496.8309 C13.7503,496.6159 13.3263,496.3559 13.3613,496.1949 C13.4633,495.7409 13.7503,495.3299 13.9653,494.8999 C14.1803,495.1149 14.3943,495.3299 14.6523,495.5869" id="Fill-256" fill="#000000"></path>
            <path d="M674.9756,386.0908 C674.7176,386.3468 674.5016,386.5628 674.2886,386.7778 C674.0736,386.3468 673.7866,385.9368 673.6846,385.4818 C673.6496,385.3208 674.0736,385.0618 674.2886,384.8468 C674.5206,385.2668 674.7516,385.6858 674.9756,386.0908" id="Fill-261" fill="#000000"></path>
            <path d="M638.291,386.0908 C638.032,386.3468 637.818,386.5628 637.604,386.7778 C637.389,386.3468 637.102,385.9368 637,385.4818 C636.965,385.3208 637.389,385.0618 637.604,384.8468 C637.836,385.2668 638.067,385.6858 638.291,386.0908" id="Fill-263" fill="#000000"></path>
            <path d="M601.6064,386.0908 C601.3474,386.3468 601.1324,386.5628 600.9194,386.7778 C600.7044,386.3468 600.4174,385.9368 600.3154,385.4818 C600.2804,385.3208 600.7044,385.0618 600.9194,384.8468 C601.1514,385.2668 601.3824,385.6858 601.6064,386.0908" id="Fill-265" fill="#000000"></path>
            <path d="M563.5469,385.5322 C563.8059,385.2762 564.0199,385.0612 564.2339,384.8462 C564.4489,385.2762 564.7369,385.6872 564.8379,386.1412 C564.8739,386.3022 564.4489,386.5622 564.2339,386.7772 C564.0029,386.3562 563.7709,385.9372 563.5469,385.5322" id="Fill-267" fill="#000000"></path>
            <path d="M526.8623,385.5322 C527.1213,385.2762 527.3353,385.0612 527.5493,384.8462 C527.7643,385.2762 528.0523,385.6872 528.1533,386.1412 C528.1893,386.3022 527.7643,386.5622 527.5493,386.7772 C527.3183,386.3562 527.0863,385.9372 526.8623,385.5322" id="Fill-269" fill="#000000"></path>
            <path d="M491.5527,386.0908 C491.2937,386.3468 491.0797,386.5628 490.8657,386.7778 C490.6507,386.3468 490.3627,385.9368 490.2617,385.4818 C490.2267,385.3208 490.6507,385.0618 490.8657,384.8468 C491.0977,385.2668 491.3287,385.6858 491.5527,386.0908" id="Fill-271" fill="#000000"></path>
            <path d="M454.1807,384.8466 C454.3957,385.2746 454.6837,385.6876 454.7847,386.1416 C454.8207,386.3016 454.3957,386.5626 454.1807,386.7776 C453.9657,386.3466 453.6777,385.9366 453.5767,385.4816 C453.5417,385.3216 453.9657,385.0616 454.1807,384.8466" id="Fill-273" fill="#000000"></path>
            <path d="M416.8086,386.0908 C417.0326,385.6858 417.2646,385.2668 417.4956,384.8468 C417.7106,385.0618 418.1356,385.3208 418.0996,385.4818 C417.9986,385.9368 417.7106,386.3468 417.4956,386.7778 C417.2816,386.5628 417.0676,386.3468 416.8086,386.0908" id="Fill-275" fill="#000000"></path>
            <path d="M381.7764,385.8115 C381.3474,386.0265 380.9344,386.3155 380.4804,386.4155 C380.3224,386.4515 380.0614,386.0265 379.8454,385.8115 C380.2754,385.5965 380.6874,385.3105 381.1424,385.2075 C381.3004,385.1725 381.5614,385.5965 381.7764,385.8115" id="Fill-277" fill="#000000"></path>
            <path d="M345.0923,385.8115 C344.6633,386.0265 344.2503,386.3155 343.7963,386.4155 C343.6373,386.4515 343.3763,386.0265 343.1613,385.8115 C343.5903,385.5965 344.0033,385.3105 344.4583,385.2075 C344.6163,385.1725 344.8773,385.5965 345.0923,385.8115" id="Fill-279" fill="#000000"></path>
            <path d="M307.4424,384.8466 C307.6574,385.2746 307.9444,385.6876 308.0454,386.1416 C308.0814,386.3016 307.6574,386.5626 307.4424,386.7776 C307.2274,386.3466 306.9404,385.9366 306.8384,385.4816 C306.8034,385.3216 307.2274,385.0616 307.4424,384.8466" id="Fill-281" fill="#000000"></path>
            <path d="M271.7231,385.8115 C271.2941,386.0265 270.8811,386.3155 270.4271,386.4155 C270.2681,386.4515 270.0071,386.0265 269.7921,385.8115 C270.2211,385.5965 270.6341,385.3105 271.0881,385.2075 C271.2471,385.1725 271.5081,385.5965 271.7231,385.8115" id="Fill-283" fill="#000000"></path>
            <path d="M234.7603,385.5322 C234.5373,385.9372 234.3043,386.3562 234.0733,386.7772 C233.8583,386.5622 233.4333,386.3022 233.4693,386.1412 C233.5703,385.6872 233.8583,385.2762 234.0733,384.8462 C234.2883,385.0612 234.5023,385.2762 234.7603,385.5322" id="Fill-285" fill="#000000"></path>
            <path d="M196.7012,385.5322 C196.9592,385.2762 197.1732,385.0612 197.3882,384.8462 C197.6032,385.2762 197.8912,385.6872 197.9922,386.1412 C198.0272,386.3022 197.6032,386.5622 197.3882,386.7772 C197.1562,386.3562 196.9252,385.9372 196.7012,385.5322" id="Fill-287" fill="#000000"></path>
            <path d="M160.4258,385.1249 C160.8298,385.3479 161.2498,385.5799 161.6688,385.8119 C161.4538,386.0259 161.1928,386.4509 161.0348,386.4149 C160.5798,386.3149 160.1678,386.0259 159.7388,385.8119 C159.9528,385.5969 160.1678,385.3819 160.4258,385.1249" id="Fill-289" fill="#000000"></path>
            <path d="M124.019,384.8466 C124.234,385.2746 124.521,385.6876 124.623,386.1416 C124.658,386.3016 124.234,386.5626 124.019,386.7776 C123.804,386.3466 123.517,385.9366 123.416,385.4816 C123.38,385.3216 123.804,385.0616 124.019,384.8466" id="Fill-291" fill="#000000"></path>
            <path d="M88.022,386.0908 C87.764,386.3468 87.549,386.5628 87.335,386.7778 C87.12,386.3468 86.832,385.9368 86.731,385.4818 C86.695,385.3208 87.12,385.0618 87.335,384.8468 C87.566,385.2668 87.798,385.6858 88.022,386.0908" id="Fill-293" fill="#000000"></path>
            <path d="M51.3374,386.0908 C51.0794,386.3468 50.8644,386.5628 50.6504,386.7778 C50.4354,386.3468 50.1474,385.9368 50.0464,385.4818 C50.0104,385.3208 50.4354,385.0618 50.6504,384.8468 C50.8814,385.2668 51.1134,385.6858 51.3374,386.0908" id="Fill-295" fill="#000000"></path>
            <path d="M14.6523,386.0908 C14.3943,386.3468 14.1803,386.5628 13.9653,386.7778 C13.7503,386.3468 13.4633,385.9368 13.3613,385.4818 C13.3263,385.3208 13.7503,385.0618 13.9653,384.8468 C14.1973,385.2668 14.4293,385.6858 14.6523,386.0908" id="Fill-297" fill="#000000"></path>
            <path d="M674.5674,423.1826 C674.1624,422.9596 673.7424,422.7286 673.3234,422.4956 C673.5384,422.2816 673.7984,421.8576 673.9574,421.8926 C674.4124,421.9956 674.8254,422.2816 675.2544,422.4956 C675.0394,422.7106 674.8254,422.9256 674.5674,423.1826" id="Fill-301" fill="#000000"></path>
            <path d="M636.917,422.2167 C637.175,421.9607 637.389,421.7457 637.604,421.5307 C637.818,421.9607 638.106,422.3717 638.207,422.8257 C638.243,422.9867 637.818,423.2467 637.604,423.4617 C637.372,423.0407 637.14,422.6227 636.917,422.2167" id="Fill-303" fill="#000000"></path>
            <path d="M601.6064,422.2167 C601.3824,422.6227 601.1514,423.0407 600.9194,423.4617 C600.7044,423.2467 600.2804,422.9867 600.3154,422.8257 C600.4174,422.3717 600.7044,421.9607 600.9194,421.5307 C601.1334,421.7457 601.3474,421.9607 601.6064,422.2167" id="Fill-305" fill="#000000"></path>
            <path d="M564.9219,422.2167 C564.6979,422.6227 564.4669,423.0407 564.2349,423.4617 C564.0199,423.2467 563.5959,422.9867 563.6309,422.8257 C563.7329,422.3717 564.0199,421.9607 564.2349,421.5307 C564.4489,421.7457 564.6629,421.9607 564.9219,422.2167" id="Fill-307" fill="#000000"></path>
            <path d="M526.8623,422.2167 C527.1213,421.9607 527.3353,421.7457 527.5493,421.5307 C527.7643,421.9607 528.0523,422.3717 528.1533,422.8257 C528.1893,422.9867 527.7643,423.2467 527.5493,423.4617 C527.3183,423.0407 527.0863,422.6227 526.8623,422.2167" id="Fill-309" fill="#000000"></path>
            <path d="M490.1777,422.7753 C490.4017,422.3703 490.6337,421.9513 490.8647,421.5313 C491.0797,421.7463 491.5047,422.0053 491.4687,422.1663 C491.3677,422.6213 491.0797,423.0323 490.8647,423.4623 C490.6507,423.2473 490.4367,423.0323 490.1777,422.7753" id="Fill-311" fill="#000000"></path>
            <path d="M454.459,421.8095 C454.717,422.0665 454.931,422.2815 455.146,422.4965 C454.717,422.7105 454.304,422.9975 453.85,423.0995 C453.691,423.1355 453.431,422.7105 453.215,422.4965 C453.635,422.2645 454.055,422.0325 454.459,421.8095" id="Fill-313" fill="#000000"></path>
            <path d="M418.1836,422.2167 C417.9596,422.6227 417.7276,423.0407 417.4966,423.4617 C417.2816,423.2467 416.8566,422.9867 416.8926,422.8257 C416.9936,422.3717 417.2816,421.9607 417.4966,421.5307 C417.7106,421.7457 417.9246,421.9607 418.1836,422.2167" id="Fill-315" fill="#000000"></path>
            <path d="M381.499,422.2167 C381.275,422.6227 381.043,423.0407 380.812,423.4617 C380.597,423.2467 380.172,422.9867 380.208,422.8257 C380.309,422.3717 380.597,421.9607 380.812,421.5307 C381.026,421.7457 381.24,421.9607 381.499,422.2167" id="Fill-317" fill="#000000"></path>
            <path d="M344.127,421.5312 C344.342,421.9592 344.629,422.3722 344.731,422.8262 C344.766,422.9862 344.342,423.2472 344.127,423.4622 C343.912,423.0322 343.625,422.6212 343.523,422.1662 C343.488,422.0062 343.912,421.7462 344.127,421.5312" id="Fill-319" fill="#000000"></path>
            <path d="M308.1294,422.2167 C307.9064,422.6227 307.6744,423.0407 307.4424,423.4617 C307.2274,423.2467 306.8034,422.9867 306.8384,422.8257 C306.9404,422.3717 307.2274,421.9607 307.4424,421.5307 C307.6574,421.7457 307.8714,421.9607 308.1294,422.2167" id="Fill-321" fill="#000000"></path>
            <path d="M271.4448,422.2167 C271.2218,422.6227 270.9898,423.0407 270.7578,423.4617 C270.5428,423.2467 270.1188,422.9867 270.1538,422.8257 C270.2548,422.3717 270.5428,421.9607 270.7578,421.5307 C270.9728,421.7457 271.1868,421.9607 271.4448,422.2167" id="Fill-323" fill="#000000"></path>
            <path d="M234.3511,421.8095 C234.6091,422.0665 234.8231,422.2815 235.0381,422.4965 C234.6091,422.7105 234.1961,422.9975 233.7421,423.0995 C233.5831,423.1355 233.3231,422.7105 233.1071,422.4965 C233.5271,422.2645 233.9471,422.0325 234.3511,421.8095" id="Fill-325" fill="#000000"></path>
            <path d="M198.0757,422.7753 C197.8177,423.0323 197.6027,423.2473 197.3887,423.4623 C197.1737,423.0323 196.8857,422.6213 196.7847,422.1663 C196.7487,422.0053 197.1737,421.7463 197.3887,421.5313 C197.6197,421.9513 197.8517,422.3703 198.0757,422.7753" id="Fill-327" fill="#000000"></path>
            <path d="M160.4258,421.8095 C160.8298,422.0325 161.2498,422.2645 161.6688,422.4965 C161.4538,422.7105 161.1928,423.1355 161.0348,423.0995 C160.5798,422.9975 160.1678,422.7105 159.7388,422.4965 C159.9528,422.2815 160.1678,422.0665 160.4258,421.8095" id="Fill-329" fill="#000000"></path>
            <path d="M123.332,422.7753 C123.555,422.3703 123.787,421.9513 124.019,421.5313 C124.234,421.7463 124.658,422.0053 124.623,422.1663 C124.521,422.6213 124.234,423.0323 124.019,423.4623 C123.804,423.2473 123.59,423.0323 123.332,422.7753" id="Fill-331" fill="#000000"></path>
            <path d="M86.6475,422.7753 C86.8705,422.3703 87.1025,421.9513 87.3345,421.5313 C87.5495,421.7463 87.9735,422.0053 87.9385,422.1663 C87.8365,422.6213 87.5495,423.0323 87.3345,423.4623 C87.1195,423.2473 86.9055,423.0323 86.6475,422.7753" id="Fill-333" fill="#000000"></path>
            <path d="M50.6499,421.5312 C50.8649,421.9592 51.1519,422.3722 51.2539,422.8262 C51.2889,422.9862 50.8649,423.2472 50.6499,423.4622 C50.4349,423.0322 50.1479,422.6212 50.0459,422.1662 C50.0109,422.0062 50.4349,421.7462 50.6499,421.5312" id="Fill-335" fill="#000000"></path>
            <g id="Group-339" transform="translate(13.000000, 420.831000)">
                <mask id="mask-52" fill="white">
                    <use xlink:href="#path-51"></use>
                </mask>
                <g id="Clip-338"></g>
                <path d="M1.2437,0.9785 C1.5017,1.2355 1.7157,1.4505 1.9307,1.6655 C1.5017,1.8795 1.0887,2.1665 0.6347,2.2685 C0.4757,2.3045 0.2147,1.8795 -0.0003,1.6655 C0.4197,1.4335 0.8387,1.2015 1.2437,0.9785" id="Fill-337" fill="#000000" mask="url(#mask-52)"></path>
            </g>
            <path d="M601.6064,92.0556 C601.3824,92.4606 601.1514,92.8796 600.9194,93.3006 C600.7044,93.0846 600.2804,92.8256 600.3154,92.6646 C600.4174,92.2106 600.7044,91.7996 600.9194,91.3686 C601.1334,91.5846 601.3474,91.7996 601.6064,92.0556" id="Fill-340" fill="#000000"></path>
            <path d="M565.2002,92.3349 C564.7702,92.5499 564.3582,92.8379 563.9032,92.9379 C563.7452,92.9739 563.4842,92.5499 563.2692,92.3349 C563.6982,92.1199 564.1112,91.8309 564.5652,91.7309 C564.7232,91.6949 564.9852,92.1199 565.2002,92.3349" id="Fill-342" fill="#000000"></path>
            <path d="M528.2373,92.0556 C528.0133,92.4606 527.7823,92.8796 527.5503,93.3006 C527.3353,93.0846 526.9113,92.8256 526.9463,92.6646 C527.0483,92.2106 527.3353,91.7996 527.5503,91.3686 C527.7643,91.5846 527.9783,91.7996 528.2373,92.0556" id="Fill-344" fill="#000000"></path>
            <path d="M490.1777,92.6137 C490.4017,92.2087 490.6337,91.7897 490.8647,91.3687 C491.0797,91.5847 491.5047,91.8447 491.4687,92.0047 C491.3677,92.4587 491.0797,92.8697 490.8647,93.3007 C490.6507,93.0847 490.4367,92.8697 490.1777,92.6137" id="Fill-346" fill="#000000"></path>
            <path d="M455.1465,92.3349 C454.7165,92.5499 454.3035,92.8379 453.8495,92.9379 C453.6915,92.9739 453.4305,92.5499 453.2145,92.3349 C453.6445,92.1199 454.0575,91.8329 454.5115,91.7309 C454.6695,91.6949 454.9305,92.1199 455.1465,92.3349" id="Fill-348" fill="#000000"></path>
            <path d="M417.7744,93.0209 C417.3704,92.7979 416.9504,92.5659 416.5304,92.3349 C416.7464,92.1199 417.0064,91.6949 417.1654,91.7309 C417.6194,91.8329 418.0324,92.1199 418.4614,92.3349 C418.2464,92.5499 418.0324,92.7649 417.7744,93.0209" id="Fill-350" fill="#000000"></path>
            <path d="M380.124,92.6137 C380.348,92.2087 380.579,91.7897 380.811,91.3687 C381.026,91.5847 381.45,91.8447 381.415,92.0047 C381.313,92.4587 381.026,92.8697 380.811,93.3007 C380.597,93.0847 380.383,92.8697 380.124,92.6137" id="Fill-352" fill="#000000"></path>
            <path d="M345.0923,92.3349 C344.6633,92.5499 344.2503,92.8379 343.7963,92.9379 C343.6373,92.9739 343.3763,92.5499 343.1613,92.3349 C343.5903,92.1199 344.0033,91.8309 344.4583,91.7309 C344.6163,91.6949 344.8773,92.1199 345.0923,92.3349" id="Fill-354" fill="#000000"></path>
            <path d="M307.7202,93.0209 C307.3162,92.7979 306.8962,92.5659 306.4772,92.3349 C306.6922,92.1199 306.9532,91.6949 307.1112,91.7309 C307.5662,91.8309 307.9782,92.1199 308.4072,92.3349 C308.1932,92.5499 307.9782,92.7649 307.7202,93.0209" id="Fill-356" fill="#000000"></path>
            <path d="M271.4448,92.0556 C271.2218,92.4606 270.9898,92.8796 270.7578,93.3006 C270.5428,93.0846 270.1188,92.8256 270.1538,92.6646 C270.2548,92.2106 270.5428,91.7996 270.7578,91.3686 C270.9728,91.5846 271.1868,91.7996 271.4448,92.0556" id="Fill-358" fill="#000000"></path>
            <path d="M234.7603,92.0556 C234.5373,92.4606 234.3043,92.8796 234.0733,93.3006 C233.8583,93.0846 233.4333,92.8256 233.4693,92.6646 C233.5703,92.2106 233.8583,91.7996 234.0733,91.3686 C234.2883,91.5846 234.5023,91.7996 234.7603,92.0556" id="Fill-360" fill="#000000"></path>
            <path d="M197.6665,91.6484 C197.9245,91.9044 198.1385,92.1194 198.3535,92.3354 C197.9245,92.5494 197.5115,92.8374 197.0575,92.9384 C196.8985,92.9744 196.6385,92.5494 196.4225,92.3354 C196.8425,92.1024 197.2625,91.8714 197.6665,91.6484" id="Fill-362" fill="#000000"></path>
            <path d="M160.9819,93.0209 C160.5779,92.7979 160.1579,92.5659 159.7379,92.3349 C159.9529,92.1199 160.2139,91.6949 160.3729,91.7309 C160.8269,91.8309 161.2399,92.1199 161.6689,92.3349 C161.4539,92.5499 161.2399,92.7649 160.9819,93.0209" id="Fill-364" fill="#000000"></path>
            <path d="M123.332,92.0556 C123.59,91.7996 123.804,91.5846 124.019,91.3686 C124.234,91.7996 124.521,92.2106 124.623,92.6646 C124.658,92.8256 124.234,93.0846 124.019,93.3006 C123.787,92.8796 123.555,92.4606 123.332,92.0556" id="Fill-366" fill="#000000"></path>
            <path d="M87.6128,91.6484 C87.8708,91.9044 88.0848,92.1194 88.2998,92.3354 C87.8708,92.5494 87.4578,92.8374 87.0038,92.9384 C86.8448,92.9744 86.5838,92.5494 86.3688,92.3354 C86.7888,92.1024 87.2078,91.8714 87.6128,91.6484" id="Fill-368" fill="#000000"></path>
            <path d="M50.9282,91.6484 C51.1862,91.9044 51.4002,92.1194 51.6152,92.3354 C51.1862,92.5494 50.7732,92.8374 50.3192,92.9384 C50.1602,92.9744 49.8992,92.5494 49.6842,92.3354 C50.1042,92.1024 50.5232,91.8714 50.9282,91.6484" id="Fill-370" fill="#000000"></path>
            <path d="M13.9653,91.3691 C14.1803,91.7971 14.4673,92.2101 14.5693,92.6641 C14.6043,92.8251 14.1803,93.0851 13.9653,93.3001 C13.7503,92.8701 13.4633,92.4591 13.3613,92.0051 C13.3263,91.8451 13.7503,91.5841 13.9653,91.3691" id="Fill-372" fill="#000000"></path>
            <path d="M674.5664,54.9638 C674.8254,55.2198 675.0394,55.4348 675.2534,55.6498 C674.8254,55.8648 674.4124,56.1528 673.9574,56.2538 C673.7984,56.2888 673.5384,55.8648 673.3234,55.6498 C673.7424,55.4178 674.1624,55.1868 674.5664,54.9638" id="Fill-376" fill="#000000"></path>
            <path d="M564.5127,128.333 C564.7707,128.589 564.9857,128.804 565.1997,129.02 C564.7707,129.234 564.3587,129.521 563.9037,129.623 C563.7447,129.659 563.4847,129.234 563.2697,129.02 C563.6887,128.788 564.1087,128.556 564.5127,128.333" id="Fill-378" fill="#000000"></path>
            <path d="M528.2373,128.7402 C528.0133,129.1452 527.7823,129.5642 527.5503,129.9852 C527.3353,129.7692 526.9113,129.5102 526.9463,129.3492 C527.0483,128.8952 527.3353,128.4842 527.5503,128.0532 C527.7643,128.2692 527.9783,128.4842 528.2373,128.7402" id="Fill-380" fill="#000000"></path>
            <path d="M491.5527,128.7402 C491.3287,129.1452 491.0977,129.5642 490.8657,129.9852 C490.6507,129.7692 490.2267,129.5102 490.2617,129.3492 C490.3627,128.8952 490.6507,128.4842 490.8657,128.0532 C491.0797,128.2692 491.2937,128.4842 491.5527,128.7402" id="Fill-382" fill="#000000"></path>
            <path d="M454.8682,128.7402 C454.6442,129.1452 454.4132,129.5642 454.1812,129.9852 C453.9662,129.7692 453.5422,129.5102 453.5772,129.3492 C453.6782,128.8952 453.9662,128.4842 454.1812,128.0532 C454.3952,128.2692 454.6092,128.4842 454.8682,128.7402" id="Fill-384" fill="#000000"></path>
            <path d="M418.1836,128.7402 C417.9596,129.1452 417.7276,129.5642 417.4966,129.9852 C417.2816,129.7692 416.8566,129.5102 416.8926,129.3492 C416.9936,128.8952 417.2816,128.4842 417.4966,128.0532 C417.7106,128.2692 417.9246,128.4842 418.1836,128.7402" id="Fill-386" fill="#000000"></path>
            <path d="M380.124,128.7402 C380.383,128.4842 380.597,128.2692 380.811,128.0532 C381.026,128.4842 381.313,128.8952 381.415,129.3492 C381.45,129.5102 381.026,129.7692 380.811,129.9852 C380.579,129.5642 380.348,129.1452 380.124,128.7402" id="Fill-388" fill="#000000"></path>
            <path d="M344.814,128.7402 C344.591,129.1452 344.359,129.5642 344.127,129.9852 C343.912,129.7692 343.488,129.5102 343.523,129.3492 C343.625,128.8952 343.912,128.4842 344.127,128.0532 C344.342,128.2692 344.556,128.4842 344.814,128.7402" id="Fill-390" fill="#000000"></path>
            <path d="M307.4424,128.0537 C307.6574,128.4817 307.9444,128.8947 308.0454,129.3487 C308.0814,129.5097 307.6574,129.7697 307.4424,129.9847 C307.2274,129.5547 306.9404,129.1437 306.8384,128.6897 C306.8034,128.5297 307.2274,128.2687 307.4424,128.0537" id="Fill-392" fill="#000000"></path>
            <path d="M271.4448,128.7402 C271.2218,129.1452 270.9898,129.5642 270.7578,129.9852 C270.5428,129.7692 270.1188,129.5102 270.1538,129.3492 C270.2548,128.8952 270.5428,128.4842 270.7578,128.0532 C270.9728,128.2692 271.1868,128.4842 271.4448,128.7402" id="Fill-394" fill="#000000"></path>
            <path d="M234.7603,128.7402 C234.5373,129.1452 234.3043,129.5642 234.0733,129.9852 C233.8583,129.7692 233.4333,129.5102 233.4693,129.3492 C233.5703,128.8952 233.8583,128.4842 234.0733,128.0532 C234.2883,128.2692 234.5023,128.4842 234.7603,128.7402" id="Fill-396" fill="#000000"></path>
            <path d="M198.0757,128.7402 C197.8517,129.1452 197.6197,129.5642 197.3887,129.9852 C197.1737,129.7692 196.7487,129.5102 196.7847,129.3492 C196.8857,128.8952 197.1737,128.4842 197.3887,128.0532 C197.6037,128.2692 197.8177,128.4842 198.0757,128.7402" id="Fill-398" fill="#000000"></path>
            <path d="M160.9819,128.333 C161.2399,128.589 161.4539,128.804 161.6689,129.02 C161.2399,129.234 160.8269,129.523 160.3729,129.623 C160.2139,129.659 159.9529,129.234 159.7379,129.02 C160.1579,128.788 160.5779,128.556 160.9819,128.333" id="Fill-400" fill="#000000"></path>
            <path d="M124.7065,129.2983 C124.4485,129.5543 124.2335,129.7693 124.0195,129.9853 C123.8045,129.5543 123.5165,129.1433 123.4155,128.6893 C123.3795,128.5293 123.8045,128.2693 124.0195,128.0533 C124.2505,128.4743 124.4825,128.8933 124.7065,129.2983" id="Fill-402" fill="#000000"></path>
            <path d="M86.6475,128.7402 C86.9055,128.4842 87.1195,128.2692 87.3345,128.0532 C87.5495,128.4842 87.8365,128.8952 87.9385,129.3492 C87.9735,129.5102 87.5495,129.7692 87.3345,129.9852 C87.1025,129.5642 86.8705,129.1452 86.6475,128.7402" id="Fill-404" fill="#000000"></path>
            <path d="M51.3374,129.2983 C51.0794,129.5543 50.8644,129.7693 50.6504,129.9853 C50.4354,129.5543 50.1474,129.1433 50.0464,128.6893 C50.0104,128.5293 50.4354,128.2693 50.6504,128.0533 C50.8814,128.4743 51.1134,128.8933 51.3374,129.2983" id="Fill-406" fill="#000000"></path>
            <g id="Group-410" transform="translate(13.000000, 127.831000)">
                <mask id="mask-54" fill="white">
                    <use xlink:href="#path-53"></use>
                </mask>
                <g id="Clip-409"></g>
                <path d="M1.2437,0.502 C1.5017,0.758 1.7157,0.973 1.9307,1.189 C1.5017,1.403 1.0887,1.692 0.6347,1.792 C0.4757,1.828 0.2147,1.403 -0.0003,1.189 C0.4197,0.957 0.8387,0.725 1.2437,0.502" id="Fill-408" fill="#000000" mask="url(#mask-54)"></path>
            </g>
            <path d="M673.6016,92.6137 C673.8246,92.2087 674.0566,91.7897 674.2886,91.3687 C674.5026,91.5847 674.9276,91.8447 674.8916,92.0047 C674.7906,92.4587 674.5026,92.8697 674.2886,93.3007 C674.0736,93.0847 673.8596,92.8697 673.6016,92.6137" id="Fill-414" fill="#000000"></path>
            <path d="M636.917,92.6137 C637.14,92.2087 637.372,91.7897 637.604,91.3687 C637.818,91.5847 638.243,91.8447 638.207,92.0047 C638.106,92.4587 637.818,92.8697 637.604,93.3007 C637.389,93.0847 637.175,92.8697 636.917,92.6137" id="Fill-416" fill="#000000"></path>
            <path d="M637.6035,54.6845 C637.8185,55.1125 638.1065,55.5255 638.2075,55.9795 C638.2435,56.1405 637.8185,56.4005 637.6035,56.6155 C637.3885,56.1855 637.1015,55.7745 636.9995,55.3205 C636.9645,55.1595 637.3885,54.8995 637.6035,54.6845" id="Fill-418" fill="#000000"></path>
            <path d="M601.6064,55.9291 C601.3474,56.1851 601.1334,56.4001 600.9194,56.6151 C600.7044,56.1851 600.4174,55.7741 600.3154,55.3201 C600.2804,55.1591 600.7044,54.8991 600.9194,54.6841 C601.1514,55.1051 601.3824,55.5241 601.6064,55.9291" id="Fill-420" fill="#000000"></path>
            <path d="M564.9219,55.9291 C564.6629,56.1851 564.4489,56.4001 564.2349,56.6151 C564.0199,56.1851 563.7329,55.7741 563.6309,55.3201 C563.5959,55.1591 564.0199,54.8991 564.2349,54.6841 C564.4669,55.1051 564.6979,55.5241 564.9219,55.9291" id="Fill-422" fill="#000000"></path>
            <path d="M528.2373,55.9291 C527.9783,56.1851 527.7643,56.4001 527.5503,56.6151 C527.3353,56.1851 527.0483,55.7741 526.9463,55.3201 C526.9113,55.1591 527.3353,54.8991 527.5503,54.6841 C527.7823,55.1051 528.0133,55.5241 528.2373,55.9291" id="Fill-424" fill="#000000"></path>
            <path d="M491.8311,55.6498 C491.4011,55.8648 490.9891,56.1528 490.5341,56.2538 C490.3761,56.2888 490.1151,55.8648 489.8991,55.6498 C490.3291,55.4348 490.7421,55.1468 491.1961,55.0468 C491.3541,55.0108 491.6161,55.4348 491.8311,55.6498" id="Fill-426" fill="#000000"></path>
            <path d="M454.459,56.3364 C454.055,56.1134 453.635,55.8814 453.215,55.6494 C453.431,55.4354 453.691,55.0104 453.85,55.0464 C454.304,55.1464 454.717,55.4354 455.146,55.6494 C454.931,55.8654 454.717,56.0804 454.459,56.3364" id="Fill-428" fill="#000000"></path>
            <path d="M418.4619,55.6498 C418.0319,55.8648 417.6189,56.1528 417.1649,56.2538 C417.0069,56.2888 416.7459,55.8648 416.5299,55.6498 C416.9599,55.4348 417.3729,55.1468 417.8269,55.0468 C417.9849,55.0108 418.2459,55.4348 418.4619,55.6498" id="Fill-430" fill="#000000"></path>
            <path d="M381.499,55.9291 C381.24,56.1851 381.026,56.4001 380.812,56.6151 C380.597,56.1851 380.309,55.7741 380.208,55.3201 C380.172,55.1591 380.597,54.8991 380.812,54.6841 C381.043,55.1051 381.275,55.5241 381.499,55.9291" id="Fill-432" fill="#000000"></path>
            <path d="M344.814,55.9291 C344.556,56.1851 344.342,56.4001 344.127,56.6151 C343.912,56.1851 343.625,55.7741 343.523,55.3201 C343.488,55.1591 343.912,54.8991 344.127,54.6841 C344.359,55.1051 344.591,55.5241 344.814,55.9291" id="Fill-434" fill="#000000"></path>
            <path d="M308.1294,55.9291 C307.8714,56.1851 307.6574,56.4001 307.4424,56.6151 C307.2274,56.1851 306.9404,55.7741 306.8384,55.3201 C306.8034,55.1591 307.2274,54.8991 307.4424,54.6841 C307.6744,55.1051 307.9064,55.5241 308.1294,55.9291" id="Fill-436" fill="#000000"></path>
            <path d="M270.0703,55.9291 C270.2943,55.5241 270.5263,55.1051 270.7573,54.6841 C270.9723,54.8991 271.3973,55.1591 271.3613,55.3201 C271.2603,55.7741 270.9723,56.1851 270.7573,56.6151 C270.5423,56.4001 270.3283,56.1851 270.0703,55.9291" id="Fill-438" fill="#000000"></path>
            <path d="M234.0732,54.6845 C234.2882,55.1125 234.5752,55.5255 234.6762,55.9795 C234.7122,56.1405 234.2882,56.4005 234.0732,56.6155 C233.8582,56.1855 233.5702,55.7745 233.4692,55.3205 C233.4332,55.1595 233.8582,54.8995 234.0732,54.6845" id="Fill-440" fill="#000000"></path>
            <path d="M197.6665,54.9638 C197.9245,55.2198 198.1385,55.4348 198.3535,55.6498 C197.9245,55.8648 197.5115,56.1528 197.0575,56.2538 C196.8985,56.2888 196.6385,55.8648 196.4225,55.6498 C196.8425,55.4178 197.2625,55.1868 197.6665,54.9638" id="Fill-442" fill="#000000"></path>
            <path d="M161.3911,55.9291 C161.1331,56.1851 160.9191,56.4001 160.7041,56.6151 C160.4891,56.1851 160.2011,55.7741 160.1001,55.3201 C160.0641,55.1591 160.4891,54.8991 160.7041,54.6841 C160.9351,55.1051 161.1671,55.5241 161.3911,55.9291" id="Fill-444" fill="#000000"></path>
            <path d="M124.7065,55.9291 C124.4485,56.1851 124.2335,56.4001 124.0195,56.6151 C123.8045,56.1851 123.5165,55.7741 123.4155,55.3201 C123.3795,55.1591 123.8045,54.8991 124.0195,54.6841 C124.2505,55.1051 124.4825,55.5241 124.7065,55.9291" id="Fill-446" fill="#000000"></path>
            <path d="M86.6475,55.371 C86.9055,55.115 87.1195,54.899 87.3345,54.684 C87.5495,55.115 87.8365,55.525 87.9385,55.98 C87.9735,56.14 87.5495,56.4 87.3345,56.615 C87.1025,56.195 86.8705,55.776 86.6475,55.371" id="Fill-448" fill="#000000"></path>
            <path d="M49.9629,55.371 C50.2209,55.115 50.4349,54.899 50.6499,54.684 C50.8649,55.115 51.1519,55.525 51.2539,55.98 C51.2889,56.14 50.8649,56.4 50.6499,56.615 C50.4179,56.195 50.1859,55.776 49.9629,55.371" id="Fill-450" fill="#000000"></path>
            <path d="M13.687,54.9638 C14.092,55.1868 14.511,55.4178 14.931,55.6498 C14.716,55.8648 14.455,56.2888 14.296,56.2538 C13.842,56.1528 13.429,55.8648 13,55.6498 C13.215,55.4348 13.429,55.2198 13.687,54.9638" id="Fill-452" fill="#000000"></path>
            <path d="M51.3374,239.352 C51.0794,239.609 50.8644,239.824 50.6504,240.039 C50.4354,239.609 50.1474,239.198 50.0464,238.743 C50.0104,238.583 50.4354,238.323 50.6504,238.108 C50.8814,238.528 51.1134,238.947 51.3374,239.352" id="Fill-454" fill="#000000"></path>
            <path d="M13.2778,238.7939 C13.5358,238.5379 13.7508,238.3229 13.9648,238.1079 C14.1798,238.5379 14.4678,238.9489 14.5688,239.4029 C14.6048,239.5639 14.1798,239.8239 13.9648,240.0389 C13.7338,239.6179 13.5018,239.1999 13.2778,238.7939" id="Fill-456" fill="#000000"></path>
            <path d="M674.9756,202.6674 C674.7176,202.9234 674.5026,203.1394 674.2886,203.3544 C674.0736,202.9234 673.7866,202.5134 673.6846,202.0584 C673.6496,201.8984 674.0736,201.6384 674.2886,201.4234 C674.5206,201.8434 674.7516,202.2624 674.9756,202.6674" id="Fill-460" fill="#000000"></path>
            <path d="M637.3252,201.7021 C637.7302,201.9251 638.1492,202.1571 638.5692,202.3891 C638.3542,202.6031 638.0932,203.0281 637.9342,202.9921 C637.4802,202.8921 637.0672,202.6031 636.6382,202.3891 C636.8532,202.1741 637.0672,201.9581 637.3252,201.7021" id="Fill-462" fill="#000000"></path>
            <path d="M601.6064,202.6674 C601.3474,202.9234 601.1334,203.1394 600.9194,203.3544 C600.7044,202.9234 600.4174,202.5134 600.3154,202.0584 C600.2804,201.8984 600.7044,201.6384 600.9194,201.4234 C601.1514,201.8434 601.3824,202.2624 601.6064,202.6674" id="Fill-464" fill="#000000"></path>
            <path d="M563.9561,201.7021 C564.3601,201.9251 564.7801,202.1571 565.2001,202.3891 C564.9851,202.6031 564.7241,203.0281 564.5651,202.9921 C564.1111,202.8921 563.6981,202.6031 563.2691,202.3891 C563.4841,202.1741 563.6981,201.9581 563.9561,201.7021" id="Fill-466" fill="#000000"></path>
            <path d="M528.2373,202.1093 C528.0133,202.5143 527.7823,202.9333 527.5503,203.3543 C527.3353,203.1393 526.9113,202.8793 526.9463,202.7183 C527.0483,202.2643 527.3353,201.8533 527.5503,201.4233 C527.7643,201.6383 527.9783,201.8533 528.2373,202.1093" id="Fill-468" fill="#000000"></path>
            <path d="M491.5527,202.6674 C491.2937,202.9234 491.0797,203.1394 490.8657,203.3544 C490.6507,202.9234 490.3627,202.5134 490.2617,202.0584 C490.2267,201.8984 490.6507,201.6384 490.8657,201.4234 C491.0977,201.8434 491.3287,202.2624 491.5527,202.6674" id="Fill-470" fill="#000000"></path>
            <path d="M454.1807,201.4233 C454.3957,201.8513 454.6837,202.2643 454.7847,202.7183 C454.8207,202.8793 454.3957,203.1393 454.1807,203.3543 C453.9657,202.9233 453.6777,202.5133 453.5767,202.0583 C453.5417,201.8983 453.9657,201.6383 454.1807,201.4233" id="Fill-472" fill="#000000"></path>
            <path d="M344.814,202.6674 C344.556,202.9234 344.342,203.1394 344.127,203.3544 C343.912,202.9234 343.625,202.5134 343.523,202.0584 C343.488,201.8984 343.912,201.6384 344.127,201.4234 C344.359,201.8434 344.591,202.2624 344.814,202.6674" id="Fill-474" fill="#000000"></path>
            <path d="M271.7231,202.3886 C271.2941,202.6036 270.8811,202.8916 270.4271,202.9926 C270.2681,203.0276 270.0071,202.6036 269.7921,202.3886 C270.2211,202.1736 270.6341,201.8876 271.0881,201.7846 C271.2471,201.7496 271.5081,202.1736 271.7231,202.3886" id="Fill-476" fill="#000000"></path>
            <path d="M234.7603,202.6674 C234.5023,202.9234 234.2883,203.1394 234.0733,203.3544 C233.8583,202.9234 233.5703,202.5134 233.4693,202.0584 C233.4333,201.8984 233.8583,201.6384 234.0733,201.4234 C234.3043,201.8434 234.5373,202.2624 234.7603,202.6674" id="Fill-478" fill="#000000"></path>
            <path d="M197.3882,201.4233 C197.6032,201.8513 197.8912,202.2643 197.9922,202.7183 C198.0272,202.8793 197.6032,203.1393 197.3882,203.3543 C197.1732,202.9233 196.8862,202.5133 196.7852,202.0583 C196.7492,201.8983 197.1732,201.6383 197.3882,201.4233" id="Fill-480" fill="#000000"></path>
            <path d="M161.3911,202.1093 C161.1671,202.5143 160.9351,202.9333 160.7041,203.3543 C160.4891,203.1393 160.0641,202.8793 160.1001,202.7183 C160.2011,202.2643 160.4891,201.8533 160.7041,201.4233 C160.9191,201.6383 161.1331,201.8533 161.3911,202.1093" id="Fill-482" fill="#000000"></path>
            <path d="M124.2974,203.0747 C123.8924,202.8527 123.4734,202.6207 123.0534,202.3887 C123.2684,202.1737 123.5294,201.7497 123.6884,201.7847 C124.1424,201.8857 124.5554,202.1737 124.9844,202.3887 C124.7694,202.6037 124.5554,202.8187 124.2974,203.0747" id="Fill-484" fill="#000000"></path>
            <path d="M88.022,202.1093 C87.798,202.5143 87.566,202.9333 87.335,203.3543 C87.12,203.1393 86.695,202.8793 86.731,202.7183 C86.832,202.2643 87.12,201.8533 87.335,201.4233 C87.549,201.6383 87.764,201.8533 88.022,202.1093" id="Fill-486" fill="#000000"></path>
            <path d="M673.6016,239.352 C673.8246,238.947 674.0566,238.528 674.2886,238.108 C674.5026,238.323 674.9276,238.583 674.8916,238.743 C674.7906,239.198 674.5026,239.609 674.2886,240.039 C674.0736,239.824 673.8596,239.609 673.6016,239.352" id="Fill-490" fill="#000000"></path>
            <path d="M638.5693,239.0732 C638.1403,239.2882 637.7273,239.5762 637.2723,239.6772 C637.1143,239.7122 636.8533,239.2882 636.6383,239.0732 C637.0673,238.8582 637.4803,238.5702 637.9343,238.4692 C638.0923,238.4342 638.3543,238.8582 638.5693,239.0732" id="Fill-492" fill="#000000"></path>
            <path d="M601.1973,239.7597 C600.7933,239.5367 600.3733,239.3047 599.9543,239.0727 C600.1693,238.8587 600.4293,238.4337 600.5883,238.4697 C601.0433,238.5697 601.4563,238.8587 601.8843,239.0727 C601.6703,239.2877 601.4563,239.5027 601.1973,239.7597" id="Fill-494" fill="#000000"></path>
            <path d="M563.5469,239.352 C563.7709,238.947 564.0029,238.528 564.2339,238.108 C564.4489,238.323 564.8739,238.583 564.8379,238.743 C564.7369,239.198 564.4489,239.609 564.2339,240.039 C564.0199,239.824 563.8059,239.609 563.5469,239.352" id="Fill-496" fill="#000000"></path>
            <path d="M527.8281,239.7597 C527.4241,239.5367 527.0041,239.3047 526.5851,239.0727 C526.8001,238.8587 527.0601,238.4337 527.2191,238.4697 C527.6741,238.5697 528.0861,238.8587 528.5151,239.0727 C528.3011,239.2877 528.0861,239.5027 527.8281,239.7597" id="Fill-498" fill="#000000"></path>
            <path d="M491.1436,238.3867 C491.4016,238.6427 491.6166,238.8587 491.8306,239.0737 C491.4016,239.2877 490.9896,239.5767 490.5346,239.6767 C490.3756,239.7127 490.1156,239.2877 489.8996,239.0737 C490.3196,238.8417 490.7396,238.6097 491.1436,238.3867" id="Fill-500" fill="#000000"></path>
            <path d="M454.8682,239.352 C454.6092,239.609 454.3952,239.824 454.1812,240.039 C453.9662,239.609 453.6782,239.198 453.5772,238.743 C453.5422,238.583 453.9662,238.323 454.1812,238.108 C454.4132,238.528 454.6442,238.947 454.8682,239.352" id="Fill-502" fill="#000000"></path>
            <path d="M344.4048,238.3867 C344.6628,238.6427 344.8778,238.8587 345.0918,239.0737 C344.6628,239.2877 344.2508,239.5767 343.7958,239.6767 C343.6378,239.7127 343.3768,239.2877 343.1618,239.0737 C343.5808,238.8417 344.0008,238.6097 344.4048,238.3867" id="Fill-504" fill="#000000"></path>
            <path d="M308.1294,239.352 C307.8714,239.609 307.6574,239.824 307.4424,240.039 C307.2274,239.609 306.9404,239.198 306.8384,238.743 C306.8034,238.583 307.2274,238.323 307.4424,238.108 C307.6744,238.528 307.9064,238.947 308.1294,239.352" id="Fill-506" fill="#000000"></path>
            <path d="M271.4448,239.352 C271.1868,239.609 270.9728,239.824 270.7578,240.039 C270.5428,239.609 270.2548,239.198 270.1538,238.743 C270.1188,238.583 270.5428,238.323 270.7578,238.108 C270.9898,238.528 271.2218,238.947 271.4448,239.352" id="Fill-508" fill="#000000"></path>
            <path d="M235.0386,239.0732 C234.6096,239.2882 234.1966,239.5762 233.7426,239.6772 C233.5836,239.7122 233.3226,239.2882 233.1076,239.0732 C233.5366,238.8582 233.9496,238.5702 234.4036,238.4692 C234.5626,238.4342 234.8236,238.8582 235.0386,239.0732" id="Fill-510" fill="#000000"></path>
            <path d="M198.0757,239.352 C197.8177,239.609 197.6037,239.824 197.3887,240.039 C197.1737,239.609 196.8857,239.198 196.7847,238.743 C196.7487,238.583 197.1737,238.323 197.3887,238.108 C197.6197,238.528 197.8517,238.947 198.0757,239.352" id="Fill-512" fill="#000000"></path>
            <path d="M160.9819,238.3867 C161.2399,238.6427 161.4539,238.8587 161.6689,239.0737 C161.2399,239.2877 160.8269,239.5747 160.3729,239.6767 C160.2139,239.7127 159.9529,239.2877 159.7379,239.0737 C160.1579,238.8417 160.5779,238.6097 160.9819,238.3867" id="Fill-514" fill="#000000"></path>
            <path d="M123.332,238.7939 C123.59,238.5379 123.804,238.3229 124.019,238.1079 C124.234,238.5379 124.521,238.9489 124.623,239.4029 C124.658,239.5639 124.234,239.8239 124.019,240.0389 C123.787,239.6179 123.555,239.1999 123.332,238.7939" id="Fill-516" fill="#000000"></path>
            <path d="M88.022,238.7939 C87.798,239.1999 87.566,239.6179 87.335,240.0389 C87.12,239.8239 86.695,239.5639 86.731,239.4029 C86.832,238.9489 87.12,238.5379 87.335,238.1079 C87.549,238.3229 87.764,238.5379 88.022,238.7939" id="Fill-518" fill="#000000"></path>
            <path d="M564.9219,165.4248 C564.6979,165.8298 564.4669,166.2488 564.2349,166.6698 C564.0199,166.4548 563.5959,166.1948 563.6309,166.0338 C563.7329,165.5798 564.0199,165.1688 564.2349,164.7388 C564.4489,164.9538 564.6629,165.1688 564.9219,165.4248" id="Fill-520" fill="#000000"></path>
            <path d="M527.2715,165.0175 C527.6765,165.2405 528.0955,165.4725 528.5155,165.7045 C528.3005,165.9185 528.0395,166.3435 527.8805,166.3075 C527.4265,166.2075 527.0135,165.9185 526.5845,165.7045 C526.7995,165.4895 527.0135,165.2735 527.2715,165.0175" id="Fill-522" fill="#000000"></path>
            <path d="M490.1777,165.9829 C490.4017,165.5779 490.6337,165.1589 490.8647,164.7389 C491.0797,164.9539 491.5047,165.2139 491.4687,165.3739 C491.3677,165.8289 491.0797,166.2389 490.8647,166.6699 C490.6507,166.4549 490.4367,166.2389 490.1777,165.9829" id="Fill-524" fill="#000000"></path>
            <path d="M455.1465,165.704 C454.7165,165.919 454.3035,166.207 453.8495,166.307 C453.6915,166.343 453.4305,165.919 453.2145,165.704 C453.6445,165.489 454.0575,165.201 454.5115,165.1 C454.6695,165.065 454.9305,165.489 455.1465,165.704" id="Fill-526" fill="#000000"></path>
            <path d="M308.4077,165.704 C307.9787,165.919 307.5657,166.207 307.1117,166.307 C306.9527,166.343 306.6917,165.919 306.4767,165.704 C306.9057,165.489 307.3187,165.202 307.7727,165.1 C307.9317,165.065 308.1927,165.489 308.4077,165.704" id="Fill-530" fill="#000000"></path>
            <path d="M270.0703,165.9829 C270.2943,165.5779 270.5263,165.1589 270.7573,164.7389 C270.9723,164.9539 271.3973,165.2139 271.3613,165.3739 C271.2603,165.8289 270.9723,166.2389 270.7573,166.6699 C270.5423,166.4549 270.3283,166.2389 270.0703,165.9829" id="Fill-532" fill="#000000"></path>
            <path d="M234.3511,166.3901 C233.9471,166.1681 233.5271,165.9361 233.1071,165.7041 C233.3231,165.4891 233.5831,165.0651 233.7421,165.1001 C234.1961,165.2011 234.6091,165.4891 235.0381,165.7041 C234.8231,165.9191 234.6091,166.1341 234.3511,166.3901" id="Fill-534" fill="#000000"></path>
            <path d="M198.0757,165.4248 C197.8517,165.8298 197.6197,166.2488 197.3887,166.6698 C197.1737,166.4548 196.7487,166.1948 196.7847,166.0338 C196.8857,165.5798 197.1737,165.1688 197.3887,164.7388 C197.6037,164.9538 197.8177,165.1688 198.0757,165.4248" id="Fill-536" fill="#000000"></path>
            <path d="M160.0166,165.4248 C160.2746,165.1688 160.4886,164.9538 160.7036,164.7388 C160.9186,165.1688 161.2056,165.5798 161.3076,166.0338 C161.3426,166.1948 160.9186,166.4548 160.7036,166.6698 C160.4716,166.2488 160.2396,165.8298 160.0166,165.4248" id="Fill-538" fill="#000000"></path>
            <path d="M124.2974,165.0175 C124.5554,165.2735 124.7694,165.4895 124.9844,165.7045 C124.5554,165.9185 124.1424,166.2075 123.6884,166.3075 C123.5294,166.3435 123.2684,165.9185 123.0534,165.7045 C123.4734,165.4725 123.8924,165.2405 124.2974,165.0175" id="Fill-540" fill="#000000"></path>
            <path d="M87.6128,166.3901 C87.2078,166.1681 86.7888,165.9361 86.3688,165.7041 C86.5838,165.4891 86.8448,165.0651 87.0038,165.1001 C87.4578,165.2011 87.8708,165.4891 88.2998,165.7041 C88.0848,165.9191 87.8708,166.1341 87.6128,166.3901" id="Fill-542" fill="#000000"></path>
            <path d="M50.9282,165.0175 C51.1862,165.2735 51.4002,165.4895 51.6152,165.7045 C51.1862,165.9185 50.7732,166.2075 50.3192,166.3075 C50.1602,166.3435 49.8992,165.9185 49.6842,165.7045 C50.1042,165.4725 50.5232,165.2405 50.9282,165.0175" id="Fill-544" fill="#000000"></path>
            <g id="Group-548" transform="translate(13.000000, 164.831000)">
                <mask id="mask-56" fill="white">
                    <use xlink:href="#path-55"></use>
                </mask>
                <g id="Clip-547"></g>
                <path d="M1.2437,0.1865 C1.5017,0.4425 1.7157,0.6585 1.9307,0.8735 C1.5017,1.0875 1.0887,1.3765 0.6347,1.4765 C0.4757,1.5125 0.2147,1.0875 -0.0003,0.8735 C0.4197,0.6415 0.8387,0.4095 1.2437,0.1865" id="Fill-546" fill="#000000" mask="url(#mask-56)"></path>
            </g>
            <path d="M674.5664,128.333 C674.8254,128.589 675.0394,128.804 675.2534,129.02 C674.8254,129.234 674.4124,129.521 673.9574,129.623 C673.7984,129.659 673.5384,129.234 673.3234,129.02 C673.7424,128.788 674.1624,128.556 674.5664,128.333" id="Fill-551" fill="#000000"></path>
            <path d="M638.291,128.7402 C638.067,129.1452 637.836,129.5642 637.604,129.9852 C637.389,129.7692 636.965,129.5102 637,129.3492 C637.102,128.8952 637.389,128.4842 637.604,128.0532 C637.818,128.2692 638.032,128.4842 638.291,128.7402" id="Fill-553" fill="#000000"></path>
            <path d="M601.6064,128.7402 C601.3824,129.1452 601.1514,129.5642 600.9194,129.9852 C600.7044,129.7692 600.2804,129.5102 600.3154,129.3492 C600.4174,128.8952 600.7044,128.4842 600.9194,128.0532 C601.1334,128.2692 601.3474,128.4842 601.6064,128.7402" id="Fill-555" fill="#000000"></path>
            <path d="M50.6499,201.4233 C50.8649,201.8513 51.1519,202.2643 51.2539,202.7183 C51.2889,202.8793 50.8649,203.1393 50.6499,203.3543 C50.4349,202.9233 50.1479,202.5133 50.0459,202.0583 C50.0109,201.8983 50.4349,201.6383 50.6499,201.4233" id="Fill-557" fill="#000000"></path>
            <g id="Group-561" transform="translate(13.000000, 200.831000)">
                <mask id="mask-58" fill="white">
                    <use xlink:href="#path-57"></use>
                </mask>
                <g id="Clip-560"></g>
                <path d="M1.2437,2.2437 C0.8387,2.0217 0.4197,1.7897 -0.0003,1.5577 C0.2147,1.3427 0.4757,0.9187 0.6347,0.9537 C1.0887,1.0547 1.5017,1.3427 1.9307,1.5577 C1.7157,1.7727 1.5017,1.9877 1.2437,2.2437" id="Fill-559" fill="#000000" mask="url(#mask-58)"></path>
            </g>
            <path d="M675.2539,165.704 C674.8249,165.919 674.4119,166.207 673.9569,166.307 C673.7989,166.343 673.5379,165.919 673.3229,165.704 C673.7519,165.489 674.1649,165.201 674.6189,165.1 C674.7769,165.065 675.0389,165.489 675.2539,165.704" id="Fill-564" fill="#000000"></path>
            <path d="M638.5693,165.704 C638.1403,165.919 637.7273,166.207 637.2723,166.307 C637.1143,166.343 636.8533,165.919 636.6383,165.704 C637.0673,165.489 637.4803,165.201 637.9343,165.1 C638.0923,165.065 638.3543,165.489 638.5693,165.704" id="Fill-566" fill="#000000"></path>
            <path d="M601.6064,165.4248 C601.3824,165.8298 601.1514,166.2488 600.9194,166.6698 C600.7044,166.4548 600.2804,166.1948 600.3154,166.0338 C600.4174,165.5798 600.7044,165.1688 600.9194,164.7388 C601.1334,164.9538 601.3474,165.1688 601.6064,165.4248" id="Fill-568" fill="#000000"></path>
            <path d="M329.646,243.8998 C331.588,241.2548 333.496,241.2548 335.438,243.8998 L329.646,243.8998 Z" id="Fill-572" fill="#FFFFFF"></path>
            <path d="M414.4424,308.7392 C414.2184,308.9622 413.9034,309.3732 413.8324,309.3332 C413.4124,309.1062 413.0494,308.7732 412.6694,308.4772 C412.9564,308.1882 413.2434,307.9022 413.5304,307.6152 C413.8344,307.9902 414.1394,308.3662 414.4424,308.7392" id="Fill-578" fill="#FFFFFF"></path>
            <path d="M417.2178,309.8251 C417.6218,310.0481 418.0418,310.2791 418.4618,310.5121 C418.2458,310.7261 417.9858,311.1501 417.8268,311.1151 C417.3728,311.0141 416.9598,310.7261 416.5308,310.5121 C416.7448,310.2971 416.9598,310.0821 417.2178,309.8251" id="Fill-580" fill="#FFFFFF"></path>
            <path d="M337.3691,245.831 C336.7251,245.188 336.0821,244.543 335.4381,243.9 C336.0821,244.543 336.7251,245.188 337.3691,245.831" id="Fill-582" fill="#FFFFFF"></path>
            <path d="M327.7153,245.831 C328.3593,245.188 329.0023,244.543 329.6463,243.9 C329.0023,244.543 328.3593,245.188 327.7153,245.831" id="Fill-584" fill="#FFFFFF"></path>
            <path d="M323.8535,191.7695 C324.4975,191.1265 325.1405,190.4815 325.7845,189.8385 C325.1405,190.4815 324.4975,191.1265 323.8535,191.7695" id="Fill-588" fill="#FFFFFF"></path>
            <path d="M327.7153,187.9077 C327.0713,188.5507 326.4283,189.1957 325.7843,189.8387 C326.4283,189.1957 327.0713,188.5507 327.7153,187.9077" id="Fill-590" fill="#FFFFFF"></path>
            <path d="M329.646,185.977 C329.002,186.62 328.359,187.265 327.715,187.908 C328.359,187.265 329.002,186.62 329.646,185.977" id="Fill-592" fill="#FFFFFF"></path>
            <path d="M331.5767,184.0463 C330.9327,184.6893 330.2897,185.3343 329.6457,185.9773 C330.2897,185.3343 330.9327,184.6893 331.5767,184.0463" id="Fill-594" fill="#FFFFFF"></path>
            <path d="M333.5078,182.1152 C332.8638,182.7582 332.2208,183.4032 331.5768,184.0462 C332.2208,183.4032 332.8638,182.7582 333.5078,182.1152" id="Fill-596" fill="#FFFFFF"></path>
            <path d="M335.4385,180.1845 C334.7945,180.8275 334.1515,181.4725 333.5075,182.1155 C334.1515,181.4725 334.7945,180.8275 335.4385,180.1845" id="Fill-598" fill="#FFFFFF"></path>
            <path d="M337.3691,178.2539 C336.7251,178.8969 336.0821,179.5419 335.4381,180.1849 C336.0821,179.5419 336.7251,178.8969 337.3691,178.2539" id="Fill-600" fill="#FFFFFF"></path>
            <path d="M337.3691,178.2539 C338.0131,177.6109 338.6561,176.9659 339.3001,176.3229 C338.6561,176.9659 338.0131,177.6109 337.3691,178.2539" id="Fill-602" fill="#FFFFFF"></path>
            <path d="M339.2998,176.3232 C339.9438,175.6802 340.5868,175.0352 341.2308,174.3922 C340.5868,175.0352 339.9438,175.6802 339.2998,176.3232" id="Fill-604" fill="#FFFFFF"></path>
            <path d="M342.3535,172.6201 C342.5775,172.8431 342.9875,173.1591 342.9495,173.2311 C342.7215,173.6491 342.3885,174.0121 342.0915,174.3921 C341.8045,174.1061 341.5175,173.8191 341.2305,173.5311 C341.6055,173.2271 341.9805,172.9221 342.3535,172.6201" id="Fill-606" fill="#FFFFFF"></path>
            <path d="M403.5537,137.957 C403.8127,137.701 404.0267,137.485 404.2407,137.27 C404.4557,137.701 404.7437,138.112 404.8447,138.566 C404.8807,138.726 404.4557,138.986 404.2407,139.201 C404.0097,138.781 403.7777,138.362 403.5537,137.957" id="Fill-608" fill="#FFFFFF"></path>
            <path d="M327.7881,334.8779 C326.7381,334.2369 325.4691,333.5089 324.2471,332.7079 C321.7381,331.0649 319.6991,328.8429 320.0911,325.7579 C320.5121,322.4489 322.0371,319.2649 324.8731,317.3489 C327.3761,315.6589 332.8951,320.0579 333.5371,323.7839 C334.3931,328.7619 332.4441,332.2339 327.7881,334.8779" id="Fill-612" fill="#FFFFFF"></path>
            <path d="M466.4717,319.332 C468.6687,318.644 470.8627,317.446 473.0667,317.428 C474.8747,317.414 476.6947,318.801 478.2097,320.648 L466.7217,320.648 C466.6387,320.209 466.5557,319.769 466.4717,319.332" id="Fill-614" fill="#FFFFFF"></path>
            <path d="M466.5137,331.1015 L478.0837,331.1015 C474.0277,335.4225 474.0277,335.4225 466.5137,331.1015" id="Fill-616" fill="#FFFFFF"></path>
            <text id="tutiquete" font-family="TrebuchetMS-Bold, Trebuchet MS" font-size="67.2094" font-weight="bold" fill="#000000">
                <tspan x="199" y="326">tutiquete</tspan>
            </text>
            <g id="Group-637" transform="translate(231.000000, 114.000000)">
                <path d="M95.646,16.5229 C95.646,16.5229 109.96,15.0259 117.257,23.7269 C124.554,32.4269 117.435,23.4059 117.435,23.4059 C117.435,23.4059 121.374,23.1659 117.257,14.2779 C113.14,5.3899 117.257,13.9029 117.257,13.9029 C117.257,13.9029 114.075,8.1119 154.584,16.9949 C195.093,25.8779 180.779,22.1359 180.779,22.1359 L180.312,21.9489 C180.312,21.9489 114.637,3.6119 107.434,3.0509 C107.434,3.0509 91.624,4.5479 95.646,16.5229" id="Fill-625" fill="#FFFFFF"></path>
                <path d="M90.4404,108.4648 C90.1524,107.3198 89.6654,106.1778 89.6434,105.0268 C89.6274,104.2258 90.2474,103.4108 90.5834,102.6008 C90.9454,103.7328 91.3074,104.8618 91.6654,105.9818 C91.1964,106.9318 90.8184,107.6988 90.4404,108.4648 M46.1424,110.3938 C45.5534,109.9368 44.9024,109.6608 44.9064,109.3918 C44.9184,108.5218 45.1714,107.6528 45.3314,106.7848 C45.6984,107.0378 46.3584,107.2708 46.3774,107.5468 C46.4374,108.4108 46.2544,109.2928 46.1424,110.3938 M188.0014,64.4248 C183.1434,64.6078 178.0324,65.4928 173.4614,64.3378 C162.5594,61.5798 151.5994,63.1528 140.6834,62.6138 C139.7134,62.5668 138.7384,62.6218 137.7654,62.6028 C130.3934,62.4618 129.2004,61.0938 128.5034,53.5488 C127.9774,47.8358 126.9534,42.1688 126.0504,36.4978 C125.9774,36.0348 125.1384,35.6958 124.6554,35.2998 L124.5744,35.3818 C124.5804,41.2188 124.6174,47.0568 124.5584,52.8938 C124.5494,53.7948 124.1044,54.6918 123.8614,55.5908 C123.4814,54.5848 122.8554,53.6008 122.7644,52.5698 C122.3194,47.4538 122.2224,42.2978 121.5864,37.2078 C121.1604,33.7858 120.0444,30.4518 119.2374,27.0768 C123.2624,27.3908 127.3014,27.5778 131.3094,28.0448 C140.5084,29.1148 149.6874,30.3548 158.8824,31.4528 C161.4344,31.7578 164.0434,31.6418 166.5744,32.0418 C168.4944,32.3458 170.2554,34.8238 172.2764,32.2448 C170.2644,31.3328 168.3334,29.9278 166.2284,29.5888 C152.9904,27.4558 139.7054,25.6088 126.4614,23.5028 C125.1714,23.2968 123.4614,22.2168 122.9994,21.1068 C122.1904,19.1608 122.1844,16.8798 121.9424,14.7258 C121.9334,14.6528 123.0534,14.2438 123.5754,14.3498 C137.9354,17.2698 152.2804,20.2708 166.6494,23.1538 C168.8414,23.5918 171.1364,23.5348 173.3864,23.6648 C180.7794,24.0888 183.1394,25.5918 184.6484,32.8488 C186.6624,42.5378 188.0404,52.3608 189.5444,62.1518 C189.6504,62.8478 188.5714,64.4018 188.0014,64.4248 M137.8114,12.2768 C138.3704,12.4098 138.8894,12.7068 139.4234,12.9408 C139.1924,13.1578 138.9114,13.5868 138.7424,13.5448 C138.1894,13.4138 137.6764,13.1108 137.1484,12.8728 C137.3724,12.6608 137.6474,12.2358 137.8114,12.2768 M231.1784,120.9128 C222.1374,117.4008 212.5864,116.2948 203.0534,115.3258 C196.4274,114.6538 196.4874,114.9718 199.6434,109.3348 C200.8864,107.1138 202.3794,104.6518 202.4824,102.2448 C202.8154,94.4658 203.2394,86.5858 202.3644,78.8878 C201.0664,67.4778 199.1324,56.0908 196.6144,44.8858 C194.8704,37.1278 191.7944,29.6528 189.0944,22.1298 C187.8274,18.5948 185.3294,16.1648 181.3194,15.6508 C176.8834,15.0798 172.4394,14.5118 168.0434,13.7088 C154.5364,11.2418 141.0584,8.6198 127.5434,6.2128 C126.4354,6.0168 125.1204,6.9958 123.9014,7.4298 C124.7934,8.2808 125.6854,9.1318 126.5774,9.9858 C127.4854,10.1798 128.3914,10.3738 129.2984,10.5688 L128.5874,11.6538 C127.9124,11.1038 127.2374,10.5528 126.5634,10.0008 C125.2634,9.9928 123.9604,9.9148 122.6654,9.9868 C116.6144,10.3298 116.0204,11.1168 117.4204,17.0068 C117.6414,17.9338 118.3494,18.7628 118.4854,19.6878 C118.6134,20.5738 118.2894,21.5238 118.1634,22.4478 C117.2234,21.8728 115.8154,21.5218 115.4194,20.6898 C112.5444,14.6338 107.3424,14.1558 101.6674,14.6228 C100.5274,14.7158 99.3874,14.7858 98.2474,14.8658 C98.6654,13.6918 98.8894,12.3948 99.5374,11.3658 C101.5034,8.2488 103.8584,5.8738 108.0984,6.0298 C111.9294,6.1698 115.7834,5.6608 119.6274,5.4358 C116.4784,0.8618 110.9594,2.1908 106.6494,0.7498 C104.5344,0.0408 100.9824,2.9278 98.3684,4.6288 C96.2254,6.0208 94.4454,8.0048 92.6104,9.8328 C81.1044,21.3028 69.7214,32.8948 58.1014,44.2468 C53.0314,49.1978 47.3674,53.5338 42.2064,58.3998 C36.5344,63.7448 31.1104,69.3558 25.6334,74.9038 C24.7424,75.8068 23.5324,76.9728 23.5084,78.0388 C23.4574,80.3868 24.0684,82.7528 24.4094,85.1098 C25.3694,83.5658 26.1084,81.8138 27.3344,80.5208 C29.7334,77.9908 32.4724,75.7878 34.9484,73.3278 C45.3174,63.0198 55.5634,52.5878 66.0434,42.3958 C68.2434,40.2548 71.2364,38.9298 73.8644,37.2288 C74.5104,36.5758 75.1584,35.9228 75.8044,35.2678 C76.4544,34.6158 77.1024,33.9648 77.7524,33.3118 C78.3964,32.6548 79.0414,31.9998 79.6864,31.3428 C80.3374,30.6918 80.9874,30.0418 81.6374,29.3908 C82.2884,28.7408 82.9384,28.0898 83.5874,27.4408 L85.5194,25.4638 C86.1684,24.8148 86.8184,24.1628 87.4684,23.5138 L89.4284,21.5768 L91.3744,19.6238 L92.2934,18.4118 C92.0534,18.8828 91.8134,19.3528 91.5724,19.8208 C90.9284,20.4768 90.2824,21.1318 89.6374,21.7848 L87.6914,23.7328 C87.0414,24.3838 86.3914,25.0338 85.7414,25.6828 C85.0914,26.3348 84.4404,26.9868 83.7904,27.6388 C83.1404,28.2878 82.4904,28.9398 81.8404,29.5888 C81.1864,30.2358 80.5334,30.8818 79.8794,31.5288 C79.2264,32.1768 78.5724,32.8258 77.9194,33.4738 C77.2654,34.1208 76.6114,34.7668 75.9584,35.4138 C75.3054,36.0618 74.6524,36.7108 73.9994,37.3588 C61.7444,49.8818 49.4844,62.4018 37.2354,74.9308 C35.4194,76.7878 33.5524,78.6088 31.9104,80.6098 C31.4924,81.1198 31.8464,82.2628 31.8444,83.1138 C32.3824,82.9308 33.0314,82.8798 33.4424,82.5428 C37.9254,78.8558 42.1964,74.8848 46.8574,71.4458 C64.2734,58.5998 80.3024,44.1318 96.2724,29.5888 C97.4714,28.4978 98.5684,27.2638 99.8804,26.3328 C103.4604,23.7898 106.8284,24.3808 108.3144,28.4218 C111.5474,37.2198 113.8704,46.2778 112.7634,55.8038 C112.6904,56.4328 111.2004,57.4448 110.5034,57.3448 C108.6184,57.0758 106.8404,56.1088 104.9574,55.7598 C95.2624,53.9698 85.9084,53.7568 77.2294,59.8968 C66.2074,67.6948 54.8504,75.0188 43.6964,82.6338 C42.8684,83.1998 42.5124,84.4568 41.9364,85.3918 C43.0944,85.1438 44.3634,85.1248 45.3904,84.6168 C58.4444,78.1528 71.4884,71.6688 84.4804,65.0798 C89.6544,62.4558 94.8074,61.4448 100.2414,64.1408 C104.5294,66.2698 108.8414,68.3538 113.0984,70.5438 C118.2814,73.2098 121.1384,73.7028 123.4344,70.0888 C125.7274,66.4778 128.4004,66.4738 131.6304,66.5888 C149.0624,67.2068 166.4944,67.8848 183.9274,68.4948 C189.8794,68.7038 189.3364,68.8068 191.0714,74.5268 C193.0074,80.9088 192.3874,87.3118 192.9184,93.7118 C193.7234,103.4298 188.5654,107.8858 179.0544,107.6078 C161.5204,107.0938 143.9594,107.4668 126.4104,107.4938 C123.8134,107.4968 121.2044,107.4778 118.6244,107.7158 C113.5274,108.1888 108.4504,108.8608 103.3594,109.3978 C99.6604,109.7858 97.6534,108.8888 97.0374,104.3948 C96.3544,99.4128 94.2274,94.5718 92.3294,89.8288 C89.9514,83.8798 88.9814,84.0068 81.6074,84.0718 C76.4644,84.1158 75.6754,88.3128 74.2784,91.8278 C74.1204,92.2228 75.2964,93.1498 75.8544,93.8298 C76.4954,93.1668 77.1364,92.5068 77.7754,91.8458 C78.4344,91.2078 79.0934,90.5688 79.7524,89.9338 C81.7124,87.2468 83.6694,87.2218 85.6184,89.9448 C86.2764,90.5828 86.9354,91.2228 87.5944,91.8608 C88.1414,92.5448 88.6864,93.2298 89.2324,93.9138 C88.8724,94.1528 88.5134,94.3958 88.1544,94.6368 C87.9474,93.7308 87.7424,92.8258 87.5364,91.9218 C86.8964,91.2628 86.2564,90.6038 85.6184,89.9448 C83.6714,89.9508 81.7264,89.9568 79.7814,89.9598 C79.1454,90.6208 78.5084,91.2798 77.8744,91.9388 C77.2104,92.5788 76.5464,93.2188 75.8824,93.8568 C75.8564,95.4808 76.0174,97.1318 75.7684,98.7198 C75.0294,103.4198 73.3134,97.6208 72.5974,98.9508 C72.0294,100.0038 72.0704,101.4208 71.9694,102.6848 C71.4454,109.2838 71.4604,109.2858 64.6934,109.4208 C63.7194,109.4398 62.7454,109.4108 61.7724,109.4338 C56.9094,109.5498 51.8344,110.3058 51.1054,103.1078 C50.8544,100.6228 48.6424,98.9978 46.1194,99.8228 C44.2054,100.4468 42.2994,101.8798 41.0304,103.4638 C39.8964,104.8808 39.6814,107.0158 38.9834,108.8038 C37.4644,112.6958 34.0684,111.4798 31.4894,110.9498 C30.4384,110.7328 29.5564,108.1448 29.1974,106.5028 C28.7884,104.6388 29.1034,102.6238 28.9924,100.6818 C28.9594,100.0948 28.5574,99.5308 28.3254,98.9558 C27.9284,99.6148 27.4934,100.2548 27.1564,100.9408 C27.0274,101.2068 27.1344,101.5828 27.1074,101.9038 C26.4344,109.8358 26.4474,109.9158 17.7884,111.4828 C13.3924,112.2778 8.9294,112.7008 4.5054,113.3518 C3.2804,113.5298 2.0864,113.9168 0.8794,114.2058 C1.9684,114.5718 3.0484,115.2168 4.1494,115.2558 C9.0134,115.4248 13.8864,115.3548 18.7494,115.5508 C19.4254,115.5768 20.0624,116.6078 20.7174,117.1738 C20.1114,117.7808 19.5244,118.8928 18.8954,118.9178 C13.7094,119.1228 8.5134,119.0848 3.3224,119.2368 C2.4634,119.2618 1.6224,119.8608 0.7724,120.1918 C1.6444,120.5098 2.5034,121.0648 3.3904,121.1108 C16.5824,121.8258 29.7754,122.4748 42.9704,123.1258 C44.5904,123.2058 46.2374,123.0348 47.8334,123.2598 C61.1244,125.1178 74.3844,127.2288 87.6984,128.8988 C101.7384,130.6618 115.2874,134.2308 128.7434,138.4998 C140.9364,142.3708 152.7824,146.8188 163.3984,154.0868 C167.5024,155.6008 171.6134,157.0838 175.7024,158.6228 C175.6924,158.0558 175.6714,157.4878 175.6574,156.9188 C174.8194,156.4348 173.7314,155.3958 172.8804,154.7688 C159.6114,144.9958 145.4514,136.8318 129.7934,131.5428 C107.2484,123.9298 84.1774,119.1028 60.2534,119.1468 C59.2794,119.1468 58.2954,119.1898 57.3354,119.0668 C56.7384,118.9898 56.1774,118.6338 55.6004,118.4018 C56.3004,118.0368 56.9844,117.4038 57.7044,117.3578 C59.9694,117.2128 62.2484,117.2778 64.5214,117.2828 C82.2904,117.3368 100.0134,117.7938 117.7784,118.9788 C144.8794,120.7828 172.1674,117.2288 199.2654,121.1308 C209.6444,122.6248 220.3344,119.3728 230.6234,123.0118 C231.1334,123.1938 232.0084,122.3458 232.7134,121.9788 C232.2054,121.6178 231.7434,121.1328 231.1784,120.9128" id="Fill-627" fill="#000000"></path>
                <path d="M172.9727,82.8921 C177.7667,83.1111 182.5627,83.3301 187.3567,83.5471 C183.3407,87.1181 178.1197,86.6531 173.3707,87.4951 C161.9217,89.5271 150.4057,89.8731 138.9607,87.2781 C137.6137,86.9711 136.3857,86.1311 135.1037,85.5391 C136.3307,85.2951 137.5587,84.8501 138.7887,84.8381 C146.8797,84.7701 154.9697,84.8151 163.0607,84.7621 C163.9707,84.7571 164.8797,84.3681 165.7877,84.1571 C164.8767,83.7451 163.9727,83.0031 163.0527,82.9801 C157.8777,82.8621 152.6807,83.1841 147.5267,82.8311 C143.0917,82.5301 138.7007,81.5541 134.3037,80.7991 C133.8637,80.7231 133.5147,80.1201 133.1237,79.7601 C133.6967,79.5161 134.2657,79.0641 134.8387,79.0601 C142.9277,78.9901 151.0207,79.0951 159.1087,78.9201 C165.1737,78.7901 171.3077,79.7651 177.2617,77.2861 C179.1997,76.4781 181.7367,77.0611 183.9967,77.1221 C184.5677,77.1371 185.1267,77.5851 185.6917,77.8361 C185.2377,78.2571 184.8517,78.9081 184.3197,79.0641 C181.8927,79.7751 179.3967,80.2531 176.9847,81.0051 C175.5837,81.4431 174.2957,82.2411 172.9577,82.8751 C172.0507,83.0691 171.1437,83.2621 170.2377,83.4561 C170.4747,83.8181 170.7117,84.1781 170.9487,84.5391 C171.6237,83.9911 172.2977,83.4421 172.9727,82.8921" id="Fill-629" fill="#000000"></path>
                <path d="M152.1289,73.9248 C161.0239,73.0148 169.9149,72.0798 178.8159,71.2168 C180.4129,71.0628 182.0419,71.1578 183.6519,71.2418 C184.2569,71.2738 184.8469,71.5998 185.4419,71.7918 C184.8799,72.3518 184.3999,73.2658 183.7419,73.4178 C178.1959,74.7108 172.6639,76.4768 167.0369,76.9128 C159.3359,77.5068 151.5449,77.2748 143.8099,76.9658 C140.0389,76.8158 136.3019,75.7148 132.5629,74.9738 C132.0059,74.8628 131.5259,74.3588 131.0119,74.0368 C131.5669,73.7588 132.1219,73.2428 132.6809,73.2388 C139.1359,73.1818 145.5909,73.2028 152.0469,73.2028 C152.0729,73.4428 152.1019,73.6828 152.1289,73.9248" id="Fill-631" fill="#000000"></path>
                <path d="M133.8145,102.3091 C128.7655,102.5201 126.0835,100.5171 126.2355,97.3001 C126.3875,94.1091 129.1855,92.2641 133.3965,92.8011 C134.1615,92.8971 134.8205,93.8211 135.5285,94.3641 C134.6295,94.6651 133.6445,94.8231 132.8605,95.3091 C132.0805,95.7881 130.8265,96.9441 130.9575,97.2011 C131.4535,98.1731 132.3345,99.0371 133.2595,99.6631 C133.8625,100.0731 134.7925,99.9991 135.5745,100.1421 C134.8725,101.0061 134.1685,101.8711 133.8145,102.3091" id="Fill-633" fill="#000000"></path>
                <path d="M178.8623,100.3779 C181.9243,97.7569 181.9303,97.7479 179.9713,96.5649 C179.2463,96.1279 178.4833,95.7529 177.7373,95.3489 C178.3503,94.6459 178.8343,93.7149 179.5993,93.2819 C181.9153,91.9739 184.3453,92.5419 185.4133,94.7109 C186.2923,96.4989 186.8793,99.6679 185.9123,100.8609 C183.9943,103.2339 180.9923,103.6229 178.7583,100.4839 L178.8623,100.3779 Z" id="Fill-635" fill="#000000"></path>
            </g>
        </g>
    </g>
</svg>